<?xml version="1.0" encoding="UTF-8" standalone="no"?>
<svg
   xmlns:dc="http://purl.org/dc/elements/1.1/"
   xmlns:cc="http://creativecommons.org/ns#"
   xmlns:rdf="http://www.w3.org/1999/02/22-rdf-syntax-ns#"
   xmlns:svg="http://www.w3.org/2000/svg"
   xmlns="http://www.w3.org/2000/svg"
   viewBox="0 0 1056 816"
   height="816"
   width="1056"
   xml:space="preserve"
   id="svg2"
   version="1.1"><metadata
     id="metadata8"><rdf:RDF><cc:Work
         rdf:about=""><dc:format>image/svg+xml</dc:format><dc:type
           rdf:resource="http://purl.org/dc/dcmitype/StillImage" /></cc:Work></rdf:RDF></metadata><defs
     id="defs6" /><g
     transform="matrix(1.3333333,0,0,-1.3333333,0,816)"
     id="g10"><path
       id="path12"
       style="fill:#ffcc2a;fill-opacity:1;fill-rule:evenodd;stroke:none"
       d="m 238.7075,250.6391 c -0.4978,0.5593 0.0252,0.1346 -0.7892,0.6715 -0.3047,0.2007 -0.7599,0.4048 -1.1177,0.5783 -0.8787,0.4269 -1.3841,0.6823 -2.2518,1.116 l -6.6277,3.4891 c -6.4397,3.3495 -12.8503,7.1113 -18.8918,11.1201 l -15.4026,11.2376 c -1.2634,1.0228 -2.5841,1.9466 -3.7304,3.0138 -1.8037,1.6801 -10.9318,9.6466 -12.2749,11.3307 -0.6599,0.8266 -0.7438,1.0261 -1.5468,1.8252 l -4.7285,5.0508 c -0.6931,0.7398 -0.8263,1.0789 -1.5174,1.8547 l -5.9162,7.5722 c -12.2111,17.9348 -20.637,35.2735 -20.637,59.9578 0,16.8282 4.6774,31.6194 10.3413,42.9387 0.7767,1.5522 1.3428,2.7881 2.2003,4.2072 6.2146,10.2849 11.3734,18.5085 20.0871,27.123 1.2124,1.1988 1.7986,2.1478 3.0288,3.3783 l 7.0268,6.4622 c 2.9648,2.2929 6.6569,5.8507 11.0776,9.1553 l 15.7011,10.9386 c 5.4629,3.6374 15.5874,9.1375 21.5855,12.1366 0.7775,0.3886 1.3697,0.6922 2.2499,1.1199 l 1.5525,0.8317 c 0.5068,0.3711 0.1902,0.0856 0.5811,0.5176 -8.3115,-2.3207 -32.9692,-14.5006 -39.9317,-18.519 -6.4374,-3.7151 -11.9052,-7.2967 -17.8463,-11.1535 -5.8836,-3.8194 -11.5416,-8.5898 -16.568,-12.7808 -4.7928,-3.996 -10.3495,-9.817 -14.5184,-14.482 -27.4026,-30.6606 -35.1066,-70.001 -12.4994,-106.9256 4.5465,-7.4265 9.8416,-14.3306 15.7292,-20.3395 1.309,-1.3362 2.2677,-2.4797 3.6226,-3.8072 2.38,-2.3315 4.9743,-4.9402 7.6595,-7.1623 5.0803,-4.204 10.3978,-8.7029 16.3644,-12.6448 16.369,-10.8136 29.024,-17.8509 47.2516,-25.5846 3.1445,-1.334 7.4293,-3.2933 10.7365,-4.2276 z m 319.6814,-0.015 c 3.2196,0.9147 7.5062,2.8559 10.482,4.1473 22.727,9.8626 45.7863,22.2157 63.8821,38.312 17.0314,15.15 40.2883,40.4464 40.2883,76.3735 5e-4,36.0046 -23.2402,61.1201 -40.2979,76.3643 -17.7248,15.8402 -41.1789,28.4978 -63.6438,38.2152 -3.0852,1.3346 -7.4321,3.3279 -10.7107,4.2458 0.7226,-0.8221 10.7371,-5.7433 13.0408,-6.9801 0.9193,-0.4938 1.2597,-0.7897 2.1319,-1.2398 6.2918,-3.2488 20.2122,-12.3401 26.1627,-17.0014 l 18.0989,-15.6229 c 1.3198,-1.3217 2.069,-2.0415 3.2377,-3.5064 0.9933,-1.245 2.1419,-2.0268 3.1354,-3.2718 1.0724,-1.3441 1.9474,-2.2969 3.089,-3.6552 26.433,-31.4569 35.6363,-71.6043 16.1943,-110.4866 -4.0791,-8.1581 -11.2793,-19.5792 -17.392,-26.1091 -4.7216,-5.0436 -6.2121,-7.1759 -11.4653,-11.8023 l -5.2256,-4.8906 c -5.5421,-5.3963 -18.0165,-13.8138 -25.0424,-18.4589 -6.2535,-4.1346 -16.7125,-9.8082 -23.8317,-13.2594 z" /><path
       id="path14"
       style="fill:#00a85a;fill-opacity:1;fill-rule:evenodd;stroke:none"
       d="m 578.6218,213.6631 c -1.374,0.9196 -6.0823,6.0177 -11.3939,0.2659 -0.9751,-1.0562 -0.9054,-1.2367 -1.5174,-2.5296 -0.0448,-0.0941 -0.1726,-0.37 -0.2174,-0.4573 l -0.2375,-0.4365 c -0.0253,-0.0456 -0.0757,-0.1468 -0.1228,-0.2151 -1.1851,5.0884 -2.8752,2.2609 -5.7319,2.0233 l 8.7673,-25.2912 c 0.7058,0.339 4.041,1.3266 5.0584,1.3492 -0.2137,2.5679 -5.7331,15.8945 -5.7331,17.5354 0,2.2924 5.4011,8.989 8.3857,0.9664 l 3.7061,-10.4573 c 0.5972,-1.5945 1.3561,-3.7228 1.7339,-5.3467 1.7085,0.1417 3.6987,0.9533 5.396,1.3487 l -4.2613,12.2627 c -0.7906,2.3241 -1.9633,4.7018 -1.3666,6.148 1.0545,2.5569 5.2662,7.0325 8.093,0.2407 l 5.6279,-16.2904 c 1.5514,0.7441 3.9259,0.9802 5.396,1.6855 -1.6742,3.1637 -5.019,16.0168 -7.6813,20.3085 -3.606,5.8136 -12.0821,4.6996 -13.9011,-3.1102 z m -66.769,-12.8143 c 0,-6.0094 1.5409,-11.5177 4.102,-15.457 5.1693,-7.9504 14.7175,-8.2395 22.5389,-4.1015 -0.1639,1.9639 -1.012,3.4285 -1.012,5.7323 -2.3615,-0.5497 -11.4746,-6.4469 -16.9364,2.285 -3.6797,5.8824 -5.7924,21.3205 7.4939,21.3205 2.6102,0 1.8692,0.1703 4.047,-0.3376 -0.1635,1.9644 -1.0119,3.4293 -1.0119,5.7327 -3.4314,0.2863 -5.7708,0.9899 -10.2201,-0.9076 -5.6741,-2.4202 -9.0014,-7.6592 -9.0014,-14.2668 z M 85.9487,253.4545 c 0,-8.1706 8.2755,-13.309 14.8377,-14.8377 1.6775,2.5061 11.7428,13.0141 12.1391,14.5001 -0.3733,0.5584 -8.1868,6.4094 -9.4417,6.7447 l -3.7094,-4.0462 c 1.0162,-1.5171 4.0442,-2.6617 5.0585,-4.0464 l -5.3952,-6.4075 c -2.7726,0.6452 -7.0818,3.9878 -7.0818,7.7554 0,4.8809 1.0919,5.9646 4.0436,9.7829 3.7565,4.8588 10.6466,7.9954 16.6289,5.1576 2.4216,-1.1491 5.0252,-3.7536 6.3045,-6.1724 0.6106,0.4476 3.5413,3.9656 4.047,4.7208 -3.8109,4.3841 -7.7244,8.4311 -14.5006,8.4311 -5.9054,0 -11.3681,-3.0835 -15.2589,-6.9971 -3.3882,-3.4081 -7.6717,-8.0189 -7.6717,-14.5853 z m 45.8618,-3.0351 c 0.1732,0.6554 0.0615,0.5216 0.3367,1.012 -5.3439,2.8275 -4.9036,1.6531 -9.1049,0.6743 0.6217,0.9275 1.2286,1.5829 1.349,3.0351 -0.8983,0.6018 -2.5809,1.7597 -3.7088,2.0234 l -11.4027,-16.2505 c -0.7713,-1.1381 -3.4506,-4.4623 -3.7726,-5.6687 0.6106,-0.8337 3.3596,-2.5847 4.7208,-2.6978 0.3765,1.4097 7.704,11.1626 9.0301,13.2268 2.3386,3.6385 6.5165,2.1869 9.517,0.5989 0.7061,1.0545 2.1195,3.3758 3.0354,4.0465 -1.4766,-6.3354 -18.3396,-21.7483 -4.6667,-28.2713 3.0529,-1.4562 5.7424,-1.531 8.7225,-0.0641 2.6866,1.3224 3.9826,3.003 5.5355,5.5919 0.9039,1.5075 7.8148,12.761 7.9432,14.313 -1.139,0.6026 -3.3055,1.9057 -4.7208,2.0234 L 138.6703,233.78 c -1.8822,-3.4475 -4.3634,-8.7627 -8.7687,-6.8556 -2.0299,0.8793 -2.7621,2.7411 -1.9939,5.1245 0.5409,1.6756 7.6555,13.5431 8.9612,16.0104 -0.7926,0.4189 -1.5676,0.8189 -2.4718,1.2379 -1.0089,0.4677 -1.6974,0.6517 -2.5866,1.1222 z m 30.6864,-43.1634 c 1.0554,-0.5063 3.7177,-1.5747 5.0584,-1.6864 l 6.7352,15.5209 c 1.3532,3.0316 8.7769,4.5601 8.7769,-0.6832 0,-1.9842 -2.6552,-7.122 -3.4696,-9.0079 -0.7824,-1.8111 -3.5791,-7.7276 -3.6122,-9.2019 1.8141,-0.4226 3.4667,-1.3149 5.0578,-1.6863 1.7552,7.5322 14.8162,24.5038 3.5056,27.7872 -1.7776,0.515 -2.7,0.5099 -4.4801,0.1746 -1.7995,-0.3384 -2.3763,-0.9334 -3.7463,-1.6585 0.1797,0.7684 0.7206,2.7652 1.012,3.3721 -0.836,0.4013 -3.2876,1.2577 -4.3841,1.3487 -1.9953,-3.7704 -5.7688,-13.6041 -7.869,-18.0958 -0.7741,-1.6563 -2.1934,-4.5051 -2.5846,-6.1835 z m 39.117,9.4416 c 3.9824,0 4.1746,-4.0309 3.035,-6.4071 -2.5588,0.5966 -5.2469,1.7759 -7.7558,2.3606 0.4087,1.7541 2.6146,4.0465 4.7208,4.0465 z m -13.1513,-11.8023 c 0,-2.7732 0.388,-4.7231 2.2705,-6.8344 2.5089,-2.815 8.5119,-4.5374 11.7825,-4.0852 1.4434,0.1995 1.368,0.8152 1.8558,2.0922 0.3671,0.957 0.8411,1.7671 0.9519,3.0946 -2.1149,-0.4924 -5.3872,-0.1043 -7.3193,0.7741 -5.1273,2.3321 -3.7066,5.1684 -3.4719,7.9937 l 13.4889,-4.3837 c 2.2309,4.2151 4.4978,11.5645 0.4329,15.6081 -8.4464,8.4033 -19.9913,-4.131 -19.9913,-14.2594 z m -26.9777,24.6169 c 0,-1.1208 -0.568,-2.0968 -0.6743,-3.3721 -1.3833,0.1151 -6.5622,2.4032 -7.7553,3.035 2.8899,5.463 8.4296,3.7494 8.4296,0.3371 z m -17.8721,-9.1049 c 0,-6.7411 7.2159,-10.4536 14.1633,-10.4536 0.2392,0.896 1.8374,3.7338 2.3601,4.7208 -0.9371,0.0213 -3.7443,0.4218 -4.4699,0.5885 -1.6203,0.3713 -2.5611,0.8022 -3.7749,1.6203 -3.6729,2.4746 -2.0115,5.8892 -1.8715,7.5705 1.5237,-0.1265 7.6366,-2.9948 9.8725,-3.9532 1.1265,-0.4822 2.3117,-0.9298 3.2789,-1.442 9.4623,14.1301 -0.9525,22.5371 -10.5673,16.9744 -3.9453,-2.283 -8.9912,-9.5904 -8.9912,-15.6257 z m 229.9813,-29.3377 c 0,3.477 0.813,3.0345 -4.7208,3.0345 0,-5.0012 -0.3376,-8.7974 -0.3376,-13.8257 v -12.4767 h 5.396 c 0,4.8322 0.339,8.5169 0.3376,13.151 -0.002,2.2184 -0.392,4.8076 0.7623,5.9808 2.4497,2.4908 7.6674,3.7517 7.6674,-1.5967 0,-4.0133 0.2375,-12.0923 -0.2738,-15.6331 -0.406,-2.8026 0.0402,-2.2391 5.6695,-2.2391 v 14.8371 c 0,6.6266 5.6126,7.5005 7.4024,6.0534 2.2502,-1.8184 1.0795,-8.9932 1.0171,-11.1002 l 0.0111,-9.7903 c 3.8372,0 5.7322,-0.5445 5.7322,1.0114 v 17.8728 c 0,2.2294 -0.7552,4.1249 -1.6719,5.409 -2.5098,3.519 -7.2451,3.3126 -10.3317,1.1994 -1.3122,-0.8983 -1.8919,-2.2091 -2.8335,-2.8996 -0.8731,3.7471 -5.9046,6.2782 -10.5358,3.4543 -1.2762,-0.7787 -1.8244,-2.0511 -3.2905,-2.4423 z m -78.2345,15.8488 c 1.9653,-0.1636 3.399,-0.6744 5.7336,-0.6744 0,2.2465 0.8263,4.8589 1.0111,7.0818 -1.8572,0 -4.2131,0.3206 -5.7327,0.6744 -0.383,-1.6447 -1.012,-5.2045 -1.012,-7.0818 z m 4.3841,-6.4072 c -7.4209,0 -4.2067,5.5355 -8.14,-17.8251 l -0.9459,-5.8575 c -0.3325,-1.8303 -1.1072,-1.8391 3.6654,-2.3842 2.664,-0.3039 1.5736,0.7279 3.1559,10.1225 0.5142,3.0543 2.2646,13.3568 2.2646,15.9443 z m 2.0239,-26.9767 c 1.7884,-0.1491 3.3389,-0.6744 5.3952,-0.6744 0,1.8448 0.5768,3.9708 0.8688,5.8751 0.2701,1.7552 1.4046,10.8042 2.0438,11.7825 1.6687,2.5537 5.2234,2.2382 7.8777,2.2382 0,2.1481 0.6744,3.4132 0.6744,5.7322 -5.3393,1.2444 -5.5346,-0.7588 -8.4297,-2.6977 v 3.3721 c -1.9358,0 -2.5602,0.3376 -4.7214,0.3376 l -2.84,-19.4162 c -0.3589,-2.3366 -0.8688,-4.053 -0.8688,-6.5494 z m 190.19,39.7913 5.076,-33.3658 c 1.0993,-8.1538 0.1114,-5.0768 6.3887,-5.0768 -0.1145,1.3751 -0.4754,3.2099 -0.7228,4.6718 l -5.3467,34.4452 c -1.6161,-0.1344 -3.6584,-0.6744 -5.3952,-0.6744 z M 278.4994,176.9063 c 1.1852,0 4.5836,7.516 5.2778,8.8849 0.6341,1.2495 1.0613,1.7566 1.6951,3.0262 l 4.8949,9.2685 c 0.6577,1.0789 1.3173,2.1356 1.6211,3.4373 -1.9292,0.0434 -3.5554,0.6743 -5.7336,0.6743 l -8.2967,-16.59 -1.1353,9.1806 c -0.1344,1.5556 -0.2628,2.9007 -0.491,4.5674 -0.1746,1.2739 -0.5062,3.4628 -0.5297,4.5284 -1.8083,0.4206 -3.9283,0.5907 -5.7328,1.0114 l 2.0831,-16.1255 c 0.3025,-2.5092 0.7223,-5.2375 1.0993,-8.0064 0.3053,-2.236 -0.97,-3.8571 5.2478,-3.8571 z m 176.7013,26.6403 c 0,-1.539 0.2466,-6.1895 0.6744,-7.0818 -1.842,-0.1534 -0.9196,-0.3377 -4.0465,-0.3377 l 0.3368,-5.3943 h 3.0353 c 1.2892,0 0.1225,-0.1043 1.012,0.3368 l 0.7682,-8.3364 c 0.3084,-2.393 0.3676,-5.7101 1.0428,-8.0621 1.6447,-5.7271 8.7424,-5.407 12.352,-3.4976 -0.2874,1.2322 -0.5635,4.0589 -0.6749,5.396 -6.982,-3.3508 -6.899,1.4017 -7.0838,5.73 -0.1321,3.09 -0.6724,5.6571 -0.6724,9.1068 2.4027,0 3.5093,0.3376 6.0704,0.3376 0,2.1717 -0.3376,3.0368 -0.3376,5.3952 l -6.4063,-0.3367 c 0,2.2286 -0.6281,4.9974 -0.6752,7.0815 -1.6248,0 -4.0567,0.182 -5.3952,-0.3373 z m -20.5704,-11.8027 c -0.2356,1.012 -0.582,1.9214 -0.6744,3.0354 -5.8907,0 -4.4252,0.9054 -4.3849,-3.7089 0.023,-2.6039 0.5556,-5.6353 0.6729,-8.0974 l 1.0891,-14.097 c 0.3912,-1.1582 -0.6633,-0.4 5.3204,-0.4 0,6.5569 -1.0112,11.9645 -1.0112,18.5466 0,1.4711 7.2182,6.7988 8.591,0.1612 0.6673,-3.2244 0.6267,-14.1757 1.525,-18.0334 l 5.3961,0.3376 -1.2918,16.5804 c -0.4388,4.1264 -1.1851,10.0587 -7.8131,10.0587 -2.2978,0 -4.6239,-1.2863 -5.9942,-2.7731 -0.5833,-0.6332 -0.7783,-1.1367 -1.4249,-1.6101 z M 342.9077,169.488 c 2.4298,-0.5658 2.8289,-0.3376 5.7327,-0.3376 0,1.7657 0.7662,17.2565 1.2901,18.2684 1.2572,2.4296 8.219,5.1288 8.5059,-1.0627 0.108,-2.3306 -0.3285,-3.6062 -0.3447,-6.0865 l -0.684,-11.7936 c 2.8641,0 3.0022,0.22 5.396,-0.337 l 1.0633,17.1507 c 1.114,9.62 -6.6228,13.254 -12.9107,8.1839 -0.9209,-0.7426 -0.4144,-0.727 -1.6415,-1.0553 v 3.0353 l -4.7208,0.3368 c 0,-2.666 -0.3405,-3.9643 -0.3339,-6.4108 z m -99.8161,13.8257 c 1.8595,-0.042 3.4965,-0.8535 5.3957,-1.012 l 4.1794,17.0654 c 0.9357,2.5334 8.6343,5.3785 8.6343,-0.879 0,-0.9153 -3.5606,-16.1572 -4.384,-17.8721 0.5981,-0.2869 4.9101,-1.484 5.4615,-0.9944 0.3946,0.3509 1.2328,4.5008 1.4851,5.5134 0.9805,3.9231 1.9167,7.5189 2.8408,11.3224 1.8638,7.6776 -2.2991,11.8964 -8.3936,10.7773 -2.598,-0.4771 -2.8732,-1.3377 -4.7656,-2.3394 0.1108,1.3311 0.3376,1.5806 0.3376,3.3721 -1.6008,0.1335 -2.5472,0.6749 -4.3841,0.6749 -0.4405,-0.9173 -6.3822,-24.5256 -6.4071,-25.6286 z m 85.9904,-7.7562 h -1.3488 c -6.5415,0 -5.2565,16.5235 1.0111,16.5235 4.9241,0 5.3952,-3.3194 5.3952,-7.7562 0,-3.5541 -1.8212,-8.7673 -5.0575,-8.7673 z m -11.4656,6.7442 c 0,-5.3036 2.2623,-9.7339 6.6325,-11.5772 4.6967,-1.9814 9.9935,-0.2665 12.7967,3.9509 5.2206,7.8565 4.2151,24.6917 -9.9349,22.7648 -6.313,-0.8595 -9.4943,-8.6287 -9.4943,-15.1385 z m 94.42,1.6864 c 0,7.6019 8.0938,7.7125 8.0938,0.3367 -1.0928,0 -7.596,0.2702 -8.0938,-0.3367 z m 6.7111,-16.8611 h -1.6129 c -4.5103,0.2554 -8.6712,2.7204 -10.3598,8.5641 -0.3668,1.2687 -0.8079,4.1808 -0.8079,5.5992 0,3.0529 0.8184,6.6158 2.3652,9.0998 2.3247,3.7315 5.1979,4.3892 9.1004,4.3892 5.5539,0 7.9886,-6.0579 8.4628,-11.0965 0.5012,-5.33 1.194,-4.4238 -4.754,-4.4156 -3.5841,0.004 -5.8552,-0.3376 -9.4416,-0.3376 0.4425,-0.9224 0.2891,-1.4839 0.7699,-2.6022 2.8312,-6.5812 10.612,-2.6881 13.0558,-2.1186 0,-2.253 0.3376,-3.107 0.3376,-5.0584 -2.1796,-1.1529 -4.6613,-1.8876 -7.1155,-2.0234 z m 62.4189,9.7793 c -4.6474,0 -4.4839,7.0818 0,7.0818 h 4.0464 c 0,-2.2369 0.8496,-3.4963 -0.2211,-4.828 -0.7302,-0.9094 -2.3468,-2.2538 -3.8253,-2.2538 z m -9.4425,19.8961 c 0.1349,-1.6161 0.6752,-3.6581 0.6752,-5.3961 2.2975,1.2161 8.0643,4.3305 10.7178,1.2762 1.2549,-1.444 0.7449,-2.2263 1.4213,-3.636 -2.9058,0 -6.1042,0.5099 -8.6321,-1.1472 -8.6879,-5.6939 -1.4184,-21.0291 8.0362,-15.1177 3.0552,1.9094 0.9173,1.8947 2.9568,2.4383 0,-1.3311 0.1063,-1.3677 0.3368,-2.3598 0.8365,0.0181 4.1837,0.4158 4.7217,0.6744 l -1.9616,15.5735 c -0.3546,2.9551 -0.6922,5.1075 -2.1736,6.9313 -2.6595,3.2729 -5.2435,3.1232 -8.6794,3.1232 -3.7287,0 -4.8623,-1.7649 -7.4191,-2.3601 z m -253.2493,-7.7559 19.8961,-4.3841 c 0.1503,1.8097 0.965,3.7491 1.3488,5.3952 -2.3528,0.5482 -12.5173,3.0353 -14.1633,3.0353 0,2.0435 0.6355,3.231 1.0825,4.9879 0.3918,1.5381 0.8952,3.1459 1.2782,4.7911 3.6487,-0.0805 8.0937,-2.2776 11.8026,-2.3607 0.1145,1.3768 0.998,3.8917 1.3487,5.396 -3.7485,0.8734 -7.7171,1.8244 -11.4656,2.6975 0.116,1.387 1.8632,7.7312 2.3607,8.7673 2.0784,-0.1724 4.4904,-0.9715 6.6597,-1.4332 1.1934,-0.2532 5.9193,-1.1654 6.8293,-1.601 0.4042,1.7362 1.3076,3.9024 1.3487,5.7328 l -9.4144,2.0503 c -1.6036,0.3325 -2.8877,0.6905 -4.6645,1.0683 -1.4419,0.3067 -3.2913,0.9275 -5.1426,0.9275 -0.0368,-1.6707 -0.6451,-2.9778 -1.0136,-4.3818 l -5.8729,-21.7788 c -0.4263,-1.5044 -0.7888,-2.9135 -1.1344,-4.2608 -0.4045,-1.5741 -1.0451,-2.9222 -1.084,-4.6488 z m 324.7399,54.9658 -0.7251,-0.1857 z m 108.5834,16.524 3.7094,-6.0699 c 2.1693,0.5049 3.0132,1.8839 5.0578,2.3602 l -3.7088,6.4071 c -1.7085,-0.9034 -3.32,-1.7773 -5.0584,-2.6974 z m 7.0792,-11.1238 c 1.4377,-2.1481 13.8441,-21.5566 14.1656,-22.9356 1.7311,0.4036 2.9934,1.8793 5.0584,2.3606 -1.8008,3.403 -13.7684,21.4535 -14.1633,22.9315 z m 27.9913,14.4956 c 0,-3.7588 4.0793,-8.7673 7.7559,-8.7673 5.7342,0 4.0603,1.349 8.7681,1.349 2.1279,0 5.0839,-5.5738 -5.7328,-8.0938 1.0998,-1.6429 2.4826,-2.7025 3.3718,-4.3837 5.777,1.3458 12.7264,5.8164 9.5482,12.5829 -1.3011,2.7689 -4.1938,5.6265 -8.1992,5.6265 -3.5144,0 -9.7792,-4.1717 -9.7792,1.3496 0,1.9695 5.2747,4.2049 7.4182,4.3841 -0.3469,1.3002 -2.3006,2.7842 -3.3718,4.3832 -4.2035,-0.9797 -9.7792,-3.4373 -9.7792,-8.4305 z m -43.1635,-25.9657 -2.023,2.6978 c -1.63,-0.3796 -2.7338,-0.9908 -4.0473,-1.6858 0.4161,-1.7847 5.2851,-9.6837 6.2948,-11.5778 2.168,-4.0646 4.4207,-7.7236 6.5197,-11.6901 1.4389,0.1196 3.9436,1.4338 5.0582,2.0231 -2.0384,3.852 -4.1653,7.3525 -6.2912,11.2442 l -2.3159,4.1196 c -0.582,1.0766 -0.5667,0.0992 -0.3348,1.6313 0.4456,2.9509 2.0262,4.5867 4.8949,4.5867 2.0253,0 3.0395,-2.0613 3.9098,-3.5093 l 7.8933,-14.3637 5.0585,2.361 -3.3874,6.0548 c -1.3136,2.2757 -5.7983,10.637 -7.1448,12.0762 -7.1396,7.6277 -13.9731,1.0516 -14.0848,-3.968 z m 32.7099,9.7793 c -0.2036,0.8733 -3.2746,7.0818 2.6974,7.0818 1.6101,0 3.7089,-1.6886 4.3841,-2.6978 -0.4139,-0.5643 -5.8289,-4.2797 -7.0815,-4.384 z m -6.4075,4.0473 c 0,-3.943 2.3653,-8.3308 4.8067,-11.043 3.3472,-3.7199 5.7878,-6.1554 11.7173,-6.1554 2.8806,0 7.0481,2.738 8.8634,4.6245 0.673,0.6987 1.677,1.8575 1.9273,2.7938 l -3.3721,4.0473 c -4.3665,-6.5203 -10.6333,-7.9691 -14.1633,-2.6977 l 8.6998,5.4635 c 0.9108,0.6105 2.2294,1.2225 2.7658,1.955 -0.3008,1.1279 -1.4698,2.2249 -2.2133,3.1819 -8.3583,10.7589 -19.0316,5.6168 -19.0316,-2.1699 z M 543.5512,199.1625 c 0,8.7092 11.4656,7.96 11.4656,-6.0696 0,-4.7619 -5.7637,-7.2966 -9.5187,-1.0876 -0.8453,1.398 -1.9469,4.9924 -1.9469,7.1572 z m -5.7327,0.3376 c 0,-7.2167 4.8858,-16.524 11.4655,-16.524 h 2.0231 c 5.2985,0 9.4425,4.439 9.4425,9.7798 0,5.9896 -1.8272,12.3888 -6.5959,15.6603 -6.4783,4.4441 -16.3352,1.0179 -16.3352,-8.9161 z m 95.432,13.8257 c -4.5638,0 -6.3462,7.7559 2.6986,7.7559 0.2531,-1.0877 1.3487,-3.2604 1.3487,-3.7097 0,-1.4984 -2.2501,-4.0462 -4.0473,-4.0462 z m -14.1625,16.8608 c 0.4156,-1.7819 1.2521,-3.2636 2.0234,-4.7209 1.4873,0.3969 1.9726,1.6495 3.2238,2.509 1.9594,1.3467 2.8333,1.5375 5.2064,1.5375 2.242,0 3.2483,-2.2008 4.0465,-3.7097 -2.1971,0 -5.0641,-1.059 -6.4857,-1.9446 -9.0365,-5.6265 2.198,-21.8798 10.1242,-14.5083 2.7168,2.5268 1.2892,2.8922 2.7686,3.9762 0.2518,-0.9439 0.6687,-1.525 1.3491,-2.0234 0.9788,0.2282 3.4769,1.2512 4.3837,1.6864 -2.0239,3.8247 -7.6413,16.7317 -9.7747,19.2259 -3.2567,3.8109 -8.2814,3.5292 -12.4959,1.3584 -1.9761,-1.0185 -2.8208,-2.3491 -4.3694,-3.3865 z m -11.8023,-8.4306 c 3.0382,0 4.5975,-1.5417 6.0792,-4.3735 0.7866,-1.5038 2.3505,-5.2419 2.3505,-7.4288 0,-3.9226 -2.2808,-4.3841 -4.7208,-4.3841 -3.7764,0 -3.5578,2.0055 -6.0792,7.7466 -0.6435,1.4655 -1.8876,3.5739 -1.4267,5.123 0.4331,1.4528 2.0511,3.3168 3.797,3.3168 z m -6.0704,0.3376 h -0.6744 c -0.2437,1.0466 -0.4308,0.9769 -0.6743,2.0231 -1.6197,-0.1349 -3.1329,-0.9788 -4.7208,-1.3487 0.3945,-1.6943 1.1265,-2.9676 1.7815,-4.6253 0.6401,-1.6189 1.2711,-3.0141 1.9185,-4.4889 l 10.5078,-24.8996 c 0.3566,-0.8628 0.7302,-1.3898 0.9666,-2.4054 l 5.0723,1.6446 c -0.1386,1.5395 -3.1586,7.8732 -4.0603,10.1577 -0.4111,1.0406 -1.1104,2.3462 -1.3488,3.3721 8.1051,-3.8894 13.7895,4.875 10.317,14.0267 -6.5526,17.2698 -18.5987,12.3939 -19.0851,6.5437" /><path
       id="path16"
       style="fill:#1c3f94;fill-opacity:1;fill-rule:evenodd;stroke:none"
       d="m 331.7995,409.28 17.7421,-10.0712 0.0124,43.2491 38.4497,-0.0153 c 0.2107,0.394 0.4258,0.8087 0.7011,1.2665 0.7126,1.1874 1.4904,2.4826 2.0891,3.6428 2.768,5.3609 7.1138,12.3256 10.1146,17.8741 0.6885,1.2719 1.3892,2.2779 2.1282,3.6054 5.3425,9.6018 8.3234,15.9415 17.3636,22.0904 1.1441,0.777 2.3848,1.5608 3.102,2.6308 -6.9358,0 -12.6935,0.3376 -19.5585,0.3376 -6.7442,0 -13.4889,0 -20.2328,0 -12.9612,0 -27.893,0.3396 -35.6891,-4.7775 -6.4786,-4.2517 -12.0889,-16.6634 -16.4727,-23.993 l -13.9836,-23.7311 c 3.282,-0.7367 6.6464,-1.6239 10.4125,-2.6668 l 3.7766,-1.0463 z" /><path
       id="path18"
       style="fill:#00a85a;fill-opacity:1;fill-rule:evenodd;stroke:none"
       d="m 469.3646,412.5589 c 4.6885,10.9695 15.9009,35.8344 16.5231,38.5047 -2.4128,-0.5622 -5.2095,-2.9362 -7.0815,-3.3727 -0.739,1.103 -1.5967,2.2124 -2.3643,3.369 l -6.1776,11.0211 c -0.4581,0.8535 -0.5533,0.8711 -1.0083,1.6891 -2.4202,4.3583 -9.4878,17.6468 -11.6447,20.3908 -10.3104,13.119 -29.215,11.4522 -40.098,0.5437 -4.0471,-4.0567 -6.3222,-8.8266 -9.328,-13.9403 -7.9277,-13.4858 -7.2247,-9.0093 0.5834,-22.9691 0.756,-1.351 1.2687,-2.3272 2.063,-3.67 0.3308,-0.5598 0.6766,-1.1256 1.0097,-1.6914 l 57.5989,-0.023 z" /><path
       id="path20"
       style="fill:#00a85a;fill-opacity:1;fill-rule:evenodd;stroke:none"
       d="m 412.7579,296.2613 -2.4143,-3.3523 c -0.193,-0.4646 -0.6421,-1.0845 -1.1736,-1.7384 29.0855,-0.3992 56.4982,-2.4716 80.8575,-5.857 4.566,-0.6338 9.0232,-1.315 13.3656,-2.0401 0.1142,0.1228 0.2356,0.2393 0.3668,0.3473 0.2979,1 0.8484,1.6225 1.3487,2.5435 l 10.0928,17.1521 c -5.6302,2.5529 -10.8434,5.6461 -15.5268,9.2999 -0.3685,0.2878 -0.7316,0.5797 -1.0933,0.8734 -3.894,0.01 -7.7913,-0.0102 -11.6822,-0.0102 -2.9267,0 -9.3719,0.2846 -13.2774,0.0646 -0.006,-5.9201 -0.0822,-11.3079 -0.3422,-12.9333 l -0.6956,-4.3489 z m 60.6115,-43.3111 v -0.0301 h -0.5068 c -2.8511,-0.1553 -6.2754,-0.1125 -9.9173,0 h -29.107 c -0.3178,-0.0666 -0.6472,-0.1267 -1.2314,-0.14 v -7.0815 c -1.1492,0.3067 -1.7391,1.1219 -2.4114,1.9726 l -19.9406,26.2576 c -0.8983,1.1968 -4.0068,4.966 -5.6362,7.6519 29.1909,-0.182 56.8968,-1.6952 82.0061,-4.2829 4.193,-0.432 8.3128,-0.8938 12.357,-1.3847 -5.1868,-8.1479 -8.7086,-19.7961 -21.8194,-22.5012 -1.0712,-0.2211 -2.3533,-0.3688 -3.793,-0.4617 z m -67.288,34.3729 c -0.3705,-0.5652 -0.811,-1.247 -1.2291,-1.8612 29.1804,-0.1894 56.9412,-1.7122 82.167,-4.3113 4.7957,-0.494 9.4984,-1.0275 14.1018,-1.5984 l 0.0947,0.1542 c -3.8183,0.6245 -7.7267,1.2144 -11.7195,1.7694 -25.0178,3.477 -53.3288,5.5582 -83.4149,5.8473" /><path
       id="path22"
       style="fill:#1c3f94;fill-opacity:1;fill-rule:evenodd;stroke:none"
       d="m 308.4667,296.2253 c -1.7339,-3.1629 -3.513,-6.59 -4.3251,-10.3981 l -0.1131,-1.0315 c 1.3907,0.2033 2.7916,0.4028 4.2026,0.5973 26.0312,3.5884 55.5223,5.6815 86.7943,5.8391 l -0.011,1.6769 0.0961,3.3514 -45.2622,-8e-4 -0.2577,4.8957 -0.0666,1.2702 v 11.6586 l -12.4217,0.0587 0.008,-10.4471 -2.8751,-1.425 c -4.1565,-2.0613 -11.2882,-3.7457 -19.0205,-5.0329 -2.2076,-0.3676 -4.4773,-0.7044 -6.7479,-1.0125 z m -4.8756,-15.408 -0.0434,-0.3954 c 2.4747,0.2795 4.9763,0.5473 7.5036,0.805 25.7772,2.6294 54.1769,4.136 84.0107,4.2483 l -0.0125,1.8734 c -31.1502,-0.1556 -60.4712,-2.2323 -86.303,-5.7937 -1.7342,-0.2393 -3.4529,-0.485 -5.1554,-0.7376 z m -0.0757,-4.2959 c 0.061,-0.4938 0.1219,-0.951 0.2628,-1.5007 2.3754,-9.2693 12.0844,-18.9632 19.9562,-19.832 4.3716,-0.4822 9.0689,-0.7228 13.7781,-0.7223 7.9614,0 53.892,-0.5414 57.664,0.3371 l -0.0961,26.7882 c -29.7824,-0.1117 -58.0575,-1.6064 -83.6504,-4.2174 -2.6674,-0.2724 -5.3056,-0.5564 -7.9146,-0.8529" /><path
       id="path24"
       style="fill:#1c3f94;fill-opacity:1;fill-rule:evenodd;stroke:none"
       d="m 459.5105,357.7912 c 0.3912,-0.7463 0.7486,-1.4383 1.0199,-1.8881 3.4322,-5.6741 6.9078,-11.774 10.4046,-17.8892 l -0.0162,-0.009 2.6068,-4.4847 v -0.027 c 2.1141,-3.6759 4.2341,-7.3216 6.3558,-10.8456 1.139,-1.8933 2.302,-3.5569 3.308,-5.459 h 11.2074 c -12.6992,12.2111 -20.2431,29.325 -19.7677,51.8395 l 0.005,0.193 c 0.345,14.8295 4.4581,27.4935 10.8791,37.8862 l -28.0238,-15.9758 h 1.9542 l 0.0674,-33.34 z m 73.6898,-12.8401 c -0.0417,4.4059 -1.1058,7.4926 -3.4702,12.0337 l -4.6622,8.0237 c 0.6186,-9.0042 3.6074,-15.4893 8.1324,-20.0574" /><path
       id="path26"
       style="fill:#00a85a;fill-opacity:1;fill-rule:evenodd;stroke:none"
       d="m 289.5525,294.3085 c 0.7178,-1.2909 1.429,-2.5804 2.2414,-3.954 0.648,-1.0948 1.0891,-1.8896 1.7371,-2.9846 0.6675,-1.1294 1.3765,-2.2904 1.8286,-3.3925 0.1709,-0.1543 0.3132,-0.3025 0.4388,-0.455 1.1523,0.1885 2.3116,0.3727 3.4798,0.5556 l 0.0896,0.7373 c 0.7302,2.5347 1.0978,4.6856 2.173,6.9715 0.4989,1.0627 0.8578,1.9264 1.4309,2.9517 0.171,0.3059 0.3362,0.5848 0.4902,0.8549 -5.1228,-0.6003 -10.008,-1.034 -13.9094,-1.2849 z m -24.8581,49.6534 c -0.0337,-0.317 -0.0471,-0.6736 -0.0176,-1.1155 0.0559,-0.8402 0.3413,-2.5265 0.521,-3.5518 0.2619,-1.4941 0.6509,-2.4885 1.0318,-3.4673 3.6839,-0.5593 9.146,-1.01 14.3555,-1.0738 2.5331,-0.0306 4.9814,0.0258 7.0875,0.2013 l 0.0139,8.9336 z m 72.377,10.4088 3.1385,4.9697 7.02,-3.4954 c -0.1196,2.7555 -7.5475,19.3691 -8.7159,22.0331 l -1.4633,3.3265 z m -1.5148,30.2439 c -1.9695,4.5134 -4.3583,10.0619 -5.4978,13.0142 l -3.9532,0.4286 c -1.87,0.2018 -4.0575,0.7123 -6.2518,1.2835 l -16.4294,-1.8663 c -7.6606,-0.8858 -15.0224,-1.8009 -21.8905,-3.4007 0.739,-1.0089 5.0238,-3.3146 6.4071,-4.0471 -0.962,-1.8178 -1.8762,-3.6178 -2.8105,-5.4099 l 50.4261,-0.002 z" /><path
       id="path28"
       style="fill:#3e4095;fill-opacity:1;fill-rule:evenodd;stroke:none"
       d="m 253.8822,244.0125 c 0.4527,-0.3421 -0.7089,-0.3373 1.0117,-0.3373 v 0.3373 z" /><path
       id="path30"
       style="fill:#3e4095;fill-opacity:1;fill-rule:evenodd;stroke:none"
       d="m 543.2142,494.9016 c -0.4521,0.3416 0.7092,0.3371 -1.0117,0.3371 v -0.3371 z" /><path
       id="path32"
       style="fill:#3e4095;fill-opacity:1;fill-rule:evenodd;stroke:none"
       d="m 254.2198,494.9016 0.7248,0.1851 z" /><path
       id="path34"
       style="fill:#ffcc2a;fill-opacity:1;fill-rule:evenodd;stroke:#ffffff;stroke-width:1.00010002;stroke-linecap:butt;stroke-linejoin:miter;stroke-miterlimit:2.61312604;stroke-dasharray:none;stroke-opacity:1"
       d="m 607.1896,335.4508 -0.0969,-32.2614 -1.0435,-0.5365 c -1.307,-0.6721 -4.3217,-1.3972 -7.7612,-2.0569 -5.2192,-1.0009 -11.5427,-1.9066 -14.0531,-2.2073 -3.9254,-0.472 -7.9299,-0.8045 -11.9815,-0.9981 -4.045,-0.1944 -8.128,-0.2466 -12.217,-0.1607 l -0.3047,0.007 c -22.4725,0.5219 -43.1252,6.2575 -58.0728,17.9206 -15.071,11.7584 -24.3204,29.4594 -23.8068,53.8079 l 0.005,0.1927 c 0.3405,14.6645 4.5255,27.1091 11.0172,37.2251 7.4763,11.6513 18.0079,20.2088 29.249,25.5144 9.6684,4.5629 20.0588,7.4214 30.7783,8.8288 11.4706,1.506 23.3186,1.3481 35.06,-0.1562 2.1288,-0.273 9.2375,-1.3612 14.4473,-2.5971 3.5238,-0.8342 6.4131,-1.8794 7.1521,-3.1136 l 0.2801,-0.9938 v -32.3691 l -2.2374,0.3464 c -3.9112,0.6046 -6.6963,1.3178 -9.5224,2.0401 -4.4654,1.1412 -9.0445,2.3131 -17.9844,3.0322 -4.913,0.3949 -9.8731,0.5275 -14.6937,0.2061 -4.7905,-0.3198 -9.4541,-1.086 -13.8081,-2.4863 -7.996,-2.5713 -14.7311,-6.9471 -19.3059,-13.3412 -4.1741,-5.834 -6.5863,-13.3935 -6.5637,-22.8481 0.0406,-16.9549 7.2006,-26.6358 17.6182,-31.745 10.6849,-5.2395 24.8511,-5.8376 38.4324,-4.5408 9.5511,0.9114 13.0794,1.8139 17.8118,3.0249 2.3975,0.6128 5.1069,1.3062 9.2809,2.1625 l 2.3278,0.478 -0.006,-2.3741 z m -326.6427,-3.9203 c 3.8681,-0.0476 7.5866,0.1063 10.3436,0.5681 l 0.0241,15.0026 -33.9996,0.1086 0.0102,34.1855 c 25.634,0 51.268,0.006 76.9019,-0.004 0.019,-25.2312 0.0278,-50.4616 0.0587,-75.6925 l -1.0788,-0.5343 c -3.8418,-1.9052 -10.6614,-3.5005 -18.1239,-4.7421 -10.2107,-1.6988 -21.7451,-2.7688 -28.3439,-3.06 -8.7146,-0.3855 -17.5618,-0.1689 -26.1221,0.8306 -7.8534,0.9167 -15.4936,2.4973 -22.6038,4.8787 -14.0533,4.7083 -26.5433,12.4673 -35.2173,23.855 -7.64,10.0309 -12.303,22.8387 -12.4461,38.8043 -0.14,15.5772 4.1992,28.4615 11.1127,38.8939 8.3043,12.5302 20.3144,21.4956 32.7186,27.3319 9.8282,4.6242 20.9681,7.4353 32.449,8.7899 12.8013,1.5112 26.0671,1.2175 38.4273,-0.3801 4.2942,-0.5547 7.9688,-1.2047 11.516,-1.9805 3.53,-0.7714 7.0297,-1.6892 10.9455,-2.774 l 1.4161,-0.3926 0.0545,-34.1847 -2.1427,0.2327 c -2.2655,0.2452 -5.2787,1.0582 -8.1032,1.8198 -1.5023,0.4051 -2.9531,0.7963 -4.0552,1.0466 -6.438,1.4604 -13.9198,2.5288 -21.3667,2.9699 -6.7955,0.4028 -13.5454,0.2817 -19.4125,-0.5409 -0.7308,-0.102 -1.4749,-0.2188 -2.2286,-0.3464 -12.799,-2.1795 -22.9482,-7.3253 -29.4301,-14.9448 -6.4248,-7.5521 -9.2855,-17.6204 -7.5873,-29.725 0.0661,-0.4748 0.1489,-0.9994 0.2458,-1.5689 1.3399,-7.8781 4.6525,-13.786 9.4283,-18.0916 5.3337,-4.8081 12.5402,-7.685 20.9052,-9.1071 3.7704,-0.6412 9.8879,-1.177 15.7043,-1.249 z m 72.267,-30.2108 c -2.2881,43.5286 -0.0544,93.6525 -0.0374,137.9143 37.8105,-0.0147 75.6218,-0.0167 113.4326,-0.0453 l -0.0868,-34.0988 -1.8992,-0.0304 c -15.1574,-0.2406 -31.6805,-0.1649 -47.8224,-0.091 -6.3851,0.0287 -12.6831,0.0587 -20.6901,0.0624 l 0.008,-17.136 h 60.5078 l 0.0689,-34.2082 h -60.5758 l 0.0379,-20.001 h 74.5447 l 0.002,-1.9417 0.0315,-4.9842 c 0.0652,-8.4297 0.1797,-23.0097 -0.2407,-25.6436 l -0.2614,-1.6313 c -38.9743,0 -77.9482,0.0133 -116.9228,-0.002 l -0.0967,1.8368 z" /><path
       id="path36"
       style="fill:#ffcc2a;fill-opacity:1;fill-rule:evenodd;stroke:none"
       d="m 398.8341,289.3 c 66.9501,0 125.9784,-8.8671 160.8485,-22.3543 -39.456,10.1797 -96.9675,16.5951 -161.0197,16.5951 -63.4652,0 -120.5136,-6.298 -159.935,-16.3156 34.9605,13.3288 93.6232,22.0748 160.1062,22.0748" /></g></svg>