<?xml version="1.0" encoding="utf-8"?>
<!DOCTYPE svg PUBLIC "-//W3C//DTD SVG 1.0//EN" "http://www.w3.org/TR/2001/REC-SVG-20010904/DTD/svg10.dtd">
<svg version="1.0" xmlns="http://www.w3.org/2000/svg" width="2607px" height="1368px" viewBox="0 0 2607 1368" preserveAspectRatio="xMidYMid meet">
 <g fill="#1c3f94">
  <path d="M1050.5 1003 c-54 -0.9 -64.2 -2 -78 -8.4 -10.4 -4.8 -18.7 -10.8 -29.3 -21 -10.7 -10.3 -18.3 -19.9 -24.6 -31.1 -6.7 -11.6 -13.1 -30.5 -10.5 -30.5 0.6 0 11.8 -1.1 24.8 -2.5 95.5 -10.1 198.1 -15.9 318.9 -18.1 l36.2 -0.6 0 55.5 0 55.5 -3.2 0.6 c-4.8 1 -185.5 1.5 -234.3 0.6z"/>
  <path d="M909.6 874.3 c1.9 -9.2 5.3 -18.4 11.1 -30.5 l6.5 -13.6 8.2 -1.2 c50 -7.1 82.3 -15.3 104.6 -26.5 l7 -3.5 0 -21.5 0 -21.5 25.5 0 25.5 0 0 26.3 c0 14.5 0.3 31.2 0.7 37 l0.6 10.7 94.4 0 94.3 0 0 3.3 c0 1.7 -0.3 6.2 -0.6 9.8 l-0.7 6.6 -33.6 0.7 c-90.3 1.8 -167.8 6.3 -244.1 14.2 -34.5 3.5 -91.1 10.4 -97.8 11.9 -2 0.5 -2.2 0.3 -1.6 -2.2z"/>
  <path d="M1649.1 731.2 c-15 -25.1 -26 -43.9 -46.6 -79.7 -12 -20.9 -27.1 -47.1 -33.6 -58.1 l-11.9 -20.2 0 -69.5 0 -69.6 -3.2 -0.3 c-2.8 -0.3 4.5 -4.7 52.5 -32 30.7 -17.5 56 -31.8 56.2 -31.8 0.3 0 -0.9 2.3 -2.6 5.2 -20.1 34 -33.7 76.7 -39.1 122.3 -1.6 14.2 -1.6 59.6 0 74 4.2 36.7 12.5 66.8 26.6 96 11.9 24.7 24.4 43.2 43 63.8 l9.7 10.7 -22.3 -0.1 -22.3 0 -6.4 -10.7z"/>
  <path d="M1858.9 620.8 c-13.7 -16.6 -22.4 -36.2 -26.5 -60.1 -2.7 -15.7 -1.9 -15.4 8.8 3.2 10.4 17.8 13.6 24.5 17.3 35.3 2.6 7.4 4.9 20.1 4.3 23.6 -0.3 2.1 -0.6 2 -3.9 -2z"/>
  <path d="M1060.8 378.7 l-35.7 -20.2 -0.1 -59.1 c0 -52.4 -0.2 -59.3 -1.5 -59.8 -1.8 -0.6 -39.2 -10.6 -50.2 -13.3 l-7.2 -1.8 32.3 -55 c17.8 -30.2 37.6 -64.4 44 -76 17.1 -30.6 27 -45 39 -57.1 8.5 -8.4 11.5 -10.7 18.6 -14.1 13.2 -6.4 27.1 -9.9 53 -13.4 10.4 -1.4 172 -2.4 219.8 -1.4 37.5 0.8 35.7 -0.2 19.2 11.5 -26.8 19.2 -39.6 34.7 -62.7 76 -6 10.7 -19 33.5 -28.8 50.5 -9.8 17.1 -22.4 39.1 -27.8 49 -5.5 9.9 -11 19.7 -12.1 21.7 l-2.1 3.8 -80.2 0 -80.3 0 0 89.5 c0 49.2 -0.3 89.5 -0.7 89.5 -0.5 0 -16.9 -9.1 -36.5 -20.3z"/>
 </g>
 <g fill="#00a859">
  <path d="M1370 1365.6 c-16.9 -4.9 -28.1 -17.2 -33.1 -36.3 -6.4 -25 -1 -51.5 13.5 -65.8 8.3 -8.2 13.4 -10 28.1 -10 12.8 0 16.3 1.3 23.2 8.8 8.6 9.3 13.7 24.1 14.9 43.4 0.7 10.2 0.7 10.2 -1.7 10.7 -1.3 0.3 -14.7 0.7 -29.8 1 -15 0.3 -27.5 0.6 -27.7 0.8 -0.6 0.7 2.3 10.3 4.4 14.4 2.4 4.7 7.1 9 12.1 11.1 5.7 2.4 18.2 1.8 28.6 -1.3 5 -1.4 9.7 -2.8 10.6 -3.1 1.4 -0.4 1.7 1 2.3 9.4 0.8 11.5 1.3 10.8 -10.7 14.8 -9.8 3.3 -27 4.4 -34.7 2.1z m7.4 -69.4 l15.8 -0.4 -0.6 -4.7 c-0.9 -6.5 -4.5 -13.2 -8.6 -15.9 -2.9 -2 -4.5 -2.3 -8.8 -2 -3.1 0.3 -6.4 1.3 -8 2.4 -3.5 2.5 -7.8 11.5 -8.7 17.8 -0.6 4.5 -0.5 4.8 1.2 4.1 1 -0.4 8.9 -1 17.7 -1.3z"/>
  <path d="M1237.2 1365.1 c-0.7 -0.4 -1.3 -1.6 -1.2 -2.7 0 -1 0.3 -18.1 0.6 -37.8 0.7 -39.4 0.4 -41.7 -4.7 -46 -5.8 -4.9 -18.5 -2.5 -26.2 4.9 -4.1 3.9 -4.7 6.4 -4.7 19.3 0 6.4 -0.3 22.8 -0.7 36.5 l-0.6 24.7 -10.9 0 -10.8 0 0 -27.7 c0 -15.3 0.3 -39.6 0.7 -54.1 l0.6 -26.3 9.1 0.3 9.1 0.3 0.3 5.8 c0.2 4 0.7 5.7 1.7 5.7 0.7 0 4 -2.3 7.3 -5 10.1 -8.5 19.4 -11.3 29.1 -9 7.5 1.8 13.7 6.4 17.3 12.6 1.6 3 3.3 5.4 3.7 5.4 0.4 0 2.9 -2.5 5.6 -5.6 8.6 -10.1 22.1 -14.4 34.1 -10.9 7.6 2.2 15 9.4 18.5 18.1 2.3 5.8 2.4 6.5 2.7 47.5 0.3 37.5 0.2 41.8 -1.3 43.3 -1.3 1.3 -3.7 1.6 -11.7 1.6 l-10 0 0.3 -39.2 c0.4 -37.7 0.3 -39.5 -1.6 -43.3 -2.7 -5.4 -7.4 -7.8 -13.9 -7.1 -5.7 0.6 -12.6 4.4 -15.7 8.7 -4.5 6.4 -4.9 10.1 -4.9 46.6 l0 34.3 -10.2 0 c-5.7 0 -10.9 -0.4 -11.6 -0.9z"/>
  <path d="M1148 1361.8 c-2.5 -0.5 -7.1 -0.7 -10.2 -0.4 l-5.8 0.4 0 -3.6 c0 -3.3 0.6 -12.8 3.6 -61.9 0.6 -9.4 0.4 -12 -1 -15.8 -3.1 -7.9 -9.2 -10.7 -18.5 -8.5 -5.8 1.4 -13.3 5.8 -15.5 9.2 -1.7 2.6 -3.1 15 -4.6 41.3 -0.5 9.9 -1.3 22.2 -1.6 27.4 l-0.6 9.4 -10.4 -0.5 c-5.8 -0.3 -10.8 -0.9 -11.3 -1.4 -0.5 -0.5 0.4 -18.9 1.9 -40.9 1.5 -22 3.1 -46.2 3.5 -53.7 l0.7 -13.8 3.3 0 c1.8 0 6 0.3 9.4 0.6 l6.1 0.7 0 6.3 c0 7.3 0.4 7.4 8 1.5 24 -18.4 50.5 -7.4 52.6 21.9 0.5 6.1 -3.9 81.7 -4.7 82.4 -0.2 0.1 -2.4 -0.1 -4.9 -0.6z"/>
  <path d="M1440.3 1361.6 c-0.3 -0.4 -1.8 -17.1 -3.4 -37 -1.6 -19.8 -3.3 -40.6 -3.8 -46.1 -0.6 -5.5 -1.1 -13.5 -1.1 -17.7 l0 -7.8 8.8 0 8.8 0 1.3 6 c0.8 3.3 1.7 6 2.2 6 0.4 0 3.3 -2.6 6.4 -5.9 7.5 -7.9 15.3 -11.5 25 -11.5 16.9 0.1 26.4 9.9 29.9 30.9 1.9 11.4 7.1 77.4 6.1 78.3 -0.9 0.9 -19.8 2.1 -20.7 1.3 -0.9 -0.9 -2.6 -19.6 -3.8 -42.6 -1.3 -25.3 -2.5 -33.8 -5.2 -38.6 -2.4 -4.3 -6.9 -6.9 -12 -6.9 -4.4 0 -12.6 4 -17.7 8.5 l-4.1 3.7 0 10.2 c0 5.5 0.7 17.8 1.5 27.1 0.8 9.4 1.7 22.7 2.1 29.7 l0.7 12.7 -10.3 0.3 c-5.6 0.2 -10.4 -0.1 -10.7 -0.6z"/>
  <path d="M1002.7 1355 c-7.7 -1.3 -17.2 -6.4 -22.6 -11.9 -10.1 -10.3 -14.8 -25 -13.8 -43 1 -19 7.2 -35.5 17.1 -46 7.2 -7.5 13.4 -10.8 23 -12.3 17.8 -2.8 34.2 4.2 43.1 18.1 14.1 22.4 9.5 63.5 -9.2 82.6 -9.9 9.9 -24.4 14.8 -37.6 12.5z m16.1 -23.4 c6.1 -3.2 11.7 -12 14.3 -22.6 1.7 -6.9 1.7 -23.8 0 -30.9 -1.8 -7.1 -5.9 -11.7 -12.4 -13.6 -6.6 -2 -10.3 -1.9 -15.3 0.4 -7.1 3.2 -12.3 12 -15 25.1 -3.9 19.2 1.3 37.8 11.6 41.9 3.7 1.5 13.7 1.3 16.8 -0.3z"/>
  <path d="M1566.6 1353 c-8.6 -3.4 -14.1 -10.1 -16.5 -20.5 -0.7 -2.8 -2.4 -18.3 -3.9 -34.5 l-2.7 -29.4 -8.8 0.3 -8.7 0.3 0 -6.5 c0 -3.5 -0.3 -8.4 -0.6 -10.9 l-0.6 -4.5 8.2 -0.6 c4.5 -0.3 8.3 -0.7 8.5 -0.9 0.2 -0.1 0 -2.3 -0.5 -4.8 -0.4 -2.5 -1.1 -9 -1.5 -14.6 -0.8 -11.9 -1.4 -11.4 12.5 -11.4 l8.6 0 1.2 10.8 c0.7 5.9 1.2 12.5 1.2 14.7 l0 3.8 13.4 -0.6 13.4 -0.6 0.7 7.7 c0.3 4.2 0.8 9.1 1.1 10.8 l0.4 3.1 -12.7 0.7 c-7 0.4 -12.9 0.9 -13.1 1.1 -0.2 0.2 0.3 8.4 1.1 18.2 0.9 9.8 1.9 21.6 2.2 26.3 0.8 11.2 2.1 15.7 5.5 19.2 2.4 2.4 3.6 2.8 8.4 2.8 3.1 0 7.7 -0.8 10.4 -1.9 l4.8 -1.9 1.2 10.6 c0.9 8.4 0.9 10.8 -0.1 11.4 -6.2 4.1 -24.8 5.1 -33.1 1.8z"/>
  <path d="M1632.3 1347.7 c-8.6 -3.2 -16.5 -11.7 -20.6 -22.1 -2.9 -7.4 -2.8 -20.2 0.2 -27.9 3.1 -8 11 -15.8 18.7 -18.7 4.9 -1.8 7.9 -2.1 18.2 -2.1 l12.4 0 -0.7 -2.7 c-2.1 -8.8 -3 -10.9 -5.9 -13.8 -4.9 -4.9 -10.4 -6 -19.7 -4.2 -4.1 0.9 -11.1 3.2 -15.4 5.2 -4.3 2 -7.9 3.5 -8.1 3.3 -0.2 -0.2 -3.4 -19 -3.4 -20.2 0 -0.3 0.6 -0.5 1.3 -0.5 0.7 0 5.1 -1.9 9.8 -4.2 8.3 -4.1 8.6 -4.2 21.1 -4.6 16.5 -0.5 21.5 0.8 29.3 8 6 5.4 9.8 11.9 11.4 19 1 4.2 10.1 74.1 10.1 77.1 0 1.6 -2.6 2.3 -12.4 3.3 l-6.4 0.7 -0.7 -4.7 c-0.9 -5.5 -3.6 -6.3 -5.9 -1.7 -1.7 3.2 -9.1 8.3 -15.5 10.6 -5.1 1.8 -13.2 1.8 -17.8 0.2z m24 -23.8 c8.5 -5.6 9.9 -9 8.3 -21.1 l-0.7 -5.8 -10.7 0 c-8.8 0 -11.3 0.3 -13.9 2 -6.7 4.1 -9.1 12.7 -5.5 20.2 2.7 5.5 6.3 7.7 12.8 7.8 4 0 6 -0.6 9.7 -3.1z"/>
  <path d="M906.8 1341.7 l-6.8 -1 0 -3.6 c0 -2 0.7 -7.4 1.5 -12.1 1.6 -8.6 13.5 -89.4 13.5 -91.2 0 -0.9 9.6 -0.4 16.2 0.8 2.6 0.5 2.7 0.8 3 7.5 l0.3 6.9 6 -4.8 c3.3 -2.7 7.5 -5.6 9.2 -6.5 3.3 -1.7 10.6 -2.2 16.2 -1.1 3.5 0.7 3.8 2.5 2.2 11.1 -0.5 2.6 -1.2 6.4 -1.6 8.4 l-0.5 3.6 -9.8 0.7 c-10.8 0.7 -18.7 3.7 -21.6 8.1 -2.2 3.4 -4 11.8 -7.1 33 -1.4 9.9 -3.2 21.8 -4.1 26.5 -0.8 4.7 -1.7 10 -2 11.8 -0.5 3 -0.7 3.2 -4.2 3 -2 0 -6.7 -0.6 -10.4 -1.1z"/>
  <path d="M861.8 1335.9 c-6.1 -0.9 -10.2 -2.5 -9.4 -3.7 0.7 -1.2 8.4 -49.2 12.1 -75.7 1.9 -13.2 3.8 -25.3 4.4 -26.8 1.2 -3.1 1.5 -3.1 12.8 -1.5 l8.3 1.2 0 3.7 c0 4.2 -3.8 31.2 -7.5 52.9 -2.1 12.4 -6.5 44.2 -6.5 47 0 1.8 -3.2 4 -5.8 3.9 -1.5 -0.1 -5.3 -0.5 -8.4 -1z"/>
  <path d="M1717 1334.9 c-0.5 -1.3 -2.1 -9.8 -3.4 -18.9 -1.3 -9.1 -6.5 -44.1 -11.7 -77.7 -5.1 -33.7 -9 -61.6 -8.6 -61.9 0.7 -0.8 19.7 -3.7 20.3 -3.1 0.2 0.2 5.4 32.3 11.4 71.3 6.1 39 11.7 74.7 12.5 79.4 0.8 4.7 1.5 9 1.5 9.6 0 0.6 -2.7 1.4 -6.2 1.8 -3.5 0.3 -8.2 0.9 -10.5 1.2 -3.8 0.6 -4.3 0.4 -5.3 -1.7z"/>
  <path d="M787 1324.7 c-4.2 -1.4 -6 -4.7 -6 -10.7 0 -2.5 -0.5 -7.2 -1 -10.5 -1.8 -11.3 -12.1 -91.8 -11.7 -92.1 0.4 -0.4 21.6 3.1 22.1 3.7 0.3 0.4 1.6 10.9 6.7 54.4 1.1 9.4 2.2 18.1 2.5 19.5 0.5 2 4 -4.3 18.1 -32.4 l17.4 -34.9 4.7 0.6 c2.6 0.3 7.7 1.1 11.4 1.7 6.4 1.1 6.6 1.3 5.8 3.5 -0.5 1.2 -7.8 15.2 -16.3 31.1 -8.5 15.9 -18.4 34.8 -22 42 -3.7 7.1 -8.5 15.8 -10.7 19.2 l-4 6.2 -6.7 -0.1 c-3.8 0 -8.4 -0.5 -10.3 -1.2z"/>
  <path d="M1833.5 1318.4 c-14.3 -3 -24.3 -8.4 -33.3 -17.9 -11.2 -11.7 -17.9 -25.9 -22.3 -46.7 -2.9 -13.8 -3.2 -35.3 -0.5 -44.8 4.7 -17.1 16.4 -31.4 31.6 -38.8 13.8 -6.7 22.7 -8.2 38.7 -6.6 l6 0.7 1.8 8.6 c1 4.7 2 9.7 2.2 11.1 l0.5 2.5 -11 -0.3 c-6.1 -0.2 -13.4 0.1 -16.4 0.7 -21.9 4.6 -32.8 21.4 -31.5 48.6 1 21.1 7.9 38.7 19.1 49.2 8.3 7.9 14.5 10.3 25.9 10.3 9.2 0 16.3 -1.6 27.4 -6 4.1 -1.7 7.8 -3 8.1 -3 0.9 0 5.6 21.9 5 22.6 -1.6 1.5 -18.4 7.5 -25 8.8 -7.1 1.5 -21.4 2 -26.3 1z"/>
  <path d="M724.7 1314.4 c-3.7 -0.8 -7.8 -1.9 -9.1 -2.4 l-2.3 -0.8 3.2 -11.4 c5 -17.1 14.5 -59.2 14.5 -63.8 0 -9.2 -4.3 -14.2 -12.8 -14.8 -12.2 -0.8 -22.7 6.2 -25.2 16.9 -3.8 16.5 -16 65.2 -16.3 65.5 -0.2 0.3 -4.2 -0.5 -8.8 -1.6 -4.6 -1.1 -9.4 -2 -10.6 -2 -2.1 0 -2.1 0 -0.6 -6.7 2.1 -9.6 22 -88.9 23.7 -94.3 1.5 -5.3 2.5 -5.6 11.6 -3.7 l6.5 1.3 -0.2 7.2 c-0.2 5.4 0.1 7.1 1 6.6 0.7 -0.4 3.1 -2 5.4 -3.6 6.5 -4.4 12 -6 20.8 -6.2 6.9 -0.1 8.8 0.3 13.8 2.8 6.7 3.2 11.8 9.4 13.9 16.6 2.8 9.6 1.7 17.1 -8.2 56.5 -5 20.4 -9.7 37.6 -10.2 38.3 -1.2 1.4 -1.4 1.4 -10.1 -0.4z"/>
  <path d="M1923 1300.1 c-21.5 -6.9 -39.3 -37.4 -39.2 -67.1 0 -23.8 12.8 -40.1 34.5 -44.1 18.1 -3.3 37.3 6.5 48.2 24.6 7.3 12.3 12.3 34.2 11.2 49.7 -1 15 -10 28.4 -23.4 34.6 -5.1 2.3 -7.2 2.7 -17.3 2.9 -6.3 0.1 -12.6 -0.1 -14 -0.6z m20.5 -22 c9 -4 12.1 -11 11.2 -25.1 -1.5 -24.8 -13.9 -43 -29.3 -43 -7.4 0 -14.8 5.7 -17.5 13.7 -2.9 8.3 -0.5 25.6 5.2 37.8 2.6 5.6 9.2 13.1 13.3 15.2 7.1 3.7 11.4 4 17.1 1.4z"/>
  <path d="M593.7 1285 c-22 -4.9 -40.1 -9.1 -40.4 -9.4 -0.3 -0.3 -0.1 -2.7 0.4 -5.3 0.9 -4.2 18.2 -68.1 31.8 -117.8 2.4 -8.8 4.6 -17.2 4.9 -18.7 0.5 -2.2 1.2 -2.8 3.2 -2.8 1.3 0 12.2 2.2 24.2 4.9 11.9 2.7 28.6 6.5 37 8.3 l15.3 3.3 -0.6 3.5 c-0.6 3.1 -4.6 18.1 -5 18.8 -0.1 0.1 -4.9 -0.9 -10.6 -2.2 -48.9 -11.3 -45.5 -10.8 -47 -6.8 -2.3 6 -8.9 33.6 -8.2 34.2 0.4 0.4 11.3 3.1 24.1 6 21.8 5.1 23.2 5.5 22.5 7.5 -0.3 1.1 -1.7 5.8 -2.9 10.5 l-2.2 8.5 -4.7 -0.3 c-2.6 -0.1 -11.5 -2 -19.8 -4.1 -8.4 -2.2 -17.3 -4.3 -19.8 -4.6 l-4.6 -0.7 -1.2 4.9 c-0.7 2.6 -2.7 10.2 -4.6 16.8 -1.8 6.6 -3.6 13.8 -4 16 l-0.6 4.1 7.3 1.2 c7.5 1.3 51 11.2 51.6 11.7 0.2 0.2 -0.8 4.3 -2.2 9.2 -1.4 4.8 -2.6 9.6 -2.6 10.6 0 0.9 -0.3 1.7 -0.7 1.6 -0.5 0 -18.7 -4 -40.6 -8.9z"/>
  <path d="M2171.1 1252.7 c-8 -18.8 -21.6 -51.1 -30.4 -71.7 -8.7 -20.6 -16.5 -39.1 -17.2 -41.1 l-1.3 -3.6 8.9 -2.8 c4.9 -1.6 9.2 -2.5 9.6 -2.1 0.5 0.4 1.3 2.2 1.9 3.9 1.3 3.9 5.4 5.2 5.4 1.7 0 -5.5 6.2 -13.1 14 -17.2 3.8 -1.9 6 -2.3 14 -2.3 8.7 0 10 0.3 15.5 3.2 12.5 6.4 23.8 20.2 31.6 38.3 5.3 12.2 6.9 19.3 6.9 29.9 0 27.1 -18.2 44.1 -40 37.2 -3.5 -1.1 -6.6 -1.9 -6.8 -1.7 -0.2 0.2 4.7 12.1 10.7 26.3 6.1 14.3 11.1 26.8 11.1 27.9 0 1.6 -1.7 2.5 -8.7 4.8 -4.9 1.6 -9.2 3 -9.8 3.2 -0.5 0.2 -7.5 -15 -15.4 -33.9z m29.7 -47.4 c9.8 -7.3 9.3 -21.5 -1.2 -43.9 -7.3 -15.3 -14.5 -21.3 -25.6 -21.4 -6.6 0 -10.7 2.2 -15 8.1 -3.6 5 -4 10.5 -1.1 17.6 5.7 14.5 14.3 34.1 15.9 36.3 3.4 4.7 7.8 6.2 16.6 5.7 5.6 -0.4 8.6 -1.1 10.4 -2.4z"/>
  <path d="M1992 1233.2 c-9.6 -27.9 -17.5 -51.3 -17.5 -52 0 -1.5 9.6 -5.1 13.8 -5.2 3 0 6.1 3.9 7.2 9.2 0.9 4.1 2 3.5 4.5 -2.8 3 -7.2 10.3 -14.7 17.6 -18.1 9.4 -4.3 19 -2.3 30.3 6.3 5 3.9 6.1 4.1 6.1 1.6 0 -3.4 6 -14 10 -17.6 7 -6.3 11.5 -8.1 20.5 -8.1 7 0 8.7 0.4 13.3 2.9 11.9 6.6 15.8 14.1 31.9 61.1 6.2 18.2 11.4 33.4 11.6 33.9 0.2 0.9 -17 6.5 -19.8 6.6 -0.6 0 -6.5 -15.6 -13 -34.7 -7.4 -21.4 -13.2 -36.5 -15 -39.3 -5.8 -8.7 -13 -10 -21.4 -4 -4.8 3.5 -10.1 12.2 -10.1 16.7 0 1.7 1.5 7.6 3.4 13 1.9 5.4 7.2 20.9 11.9 34.5 l8.6 24.8 -3.7 0.9 c-2 0.6 -5.9 1.7 -8.7 2.6 -6.4 1.9 -9.5 1.9 -9.5 0 0 -2.7 -23.1 -66.9 -25.7 -71.3 -4.3 -7.4 -12.4 -10.3 -19.2 -6.8 -3.8 2 -9.2 8.3 -11.5 13.4 -2.5 5.5 -2.5 5.4 9.6 39.2 8.2 22.8 13.2 38.2 12.5 38.5 -0.1 0 -4 1 -8.7 2.2 -4.7 1.2 -9.2 2.4 -10 2.7 -1.2 0.5 -5 -9.6 -19 -50.2z"/>
  <path d="M474 1255 c-13.5 -1.8 -28.3 -8.3 -35.7 -15.6 -2.4 -2.5 -5.7 -7.1 -7.1 -10.2 -2.5 -5.3 -2.7 -6.7 -2.7 -18.7 0 -12 0.3 -13.7 3.2 -21.8 10.3 -29.2 34.1 -50 55.2 -48.5 8.5 0.6 14.7 3.4 21.2 9.5 7.9 7.4 10.2 12.7 10.7 25 0.4 8.8 0.1 11.4 -2.2 19.5 -2.8 9.5 -7.4 20.8 -8.5 20.8 -0.3 0 -13 -4.1 -28.1 -9 -15.1 -4.9 -27.7 -8.7 -28 -8.4 -0.3 0.3 -0.5 5.2 -0.5 10.9 0 11.9 0.9 13.8 8.9 19.2 7.2 4.9 16.4 7.4 27.4 7.5 9 0 9.2 0.1 8.7 2.2 -1.5 5.1 -5.9 15.7 -6.9 16.5 -1.7 1.3 -9.6 1.9 -15.6 1.1z m21.8 -68.7 c3.4 -6.4 2 -16.9 -2.7 -21.6 -2.5 -2.6 -4 -3.1 -8.9 -3.5 -8.8 -0.6 -16.2 3.9 -20.6 12.5 -2.1 4.1 -2 5.3 0.2 5.3 0.9 0.1 7.8 2.1 15.2 4.5 7.4 2.4 14 4.4 14.7 4.5 0.7 0 1.6 -0.8 2.1 -1.7z"/>
  <path d="M386.5 1224.9 c-4.4 -1.7 -8.6 -3.3 -9.4 -3.5 -2.4 -0.8 0.1 -7.6 14.7 -39.9 5.2 -11.5 10.3 -23.4 11.3 -26.4 5.4 -15.4 -0.9 -25 -15.6 -23.8 -6.8 0.5 -12.7 3.1 -16.7 7.4 -1.5 1.6 -8.4 16.2 -16.7 35.2 -7.7 17.8 -14.3 32.6 -14.5 32.9 -0.9 0.9 -19.6 -6.1 -19.6 -7.3 0 -1.5 4.4 -12 9.8 -23.6 2.2 -4.8 9.3 -21.1 15.6 -36.3 13.2 -31.4 17.1 -39.6 18.9 -39.6 1.6 0 14 4 14.9 4.9 0.4 0.3 -0.2 3.6 -1.2 7.4 -1 3.7 -1.6 6.7 -1.3 6.7 0.3 0 3.5 -1.5 7.2 -3.2 12.5 -6.2 28.3 -4.8 37.5 3.4 6.3 5.4 8 10.5 7.4 21.5 -0.6 11.9 -4.7 23.7 -18.6 53.3 -6 12.9 -11.7 25.9 -12.6 28.8 -1 2.8 -2.1 5.2 -2.4 5.1 -0.4 0 -4.3 -1.4 -8.7 -3z"/>
  <path d="M880.5 1202.6 l-7 -1.2 0.2 -4.9 c0.1 -2.8 1 -9.2 1.9 -14.3 l1.6 -9.3 2.8 0.6 c1.5 0.3 6.5 1 10.9 1.4 4.5 0.5 8.4 1.1 8.7 1.4 0.3 0.3 -0.5 6.7 -1.7 14.1 l-2.4 13.6 -4 -0.1 c-2.2 -0.1 -7.1 -0.7 -11 -1.3z"/>
  <path d="M2269.8 1197.5 c-13.4 -4.9 -25.2 -20.1 -27.7 -35.4 -2.1 -12.9 2.3 -23.3 12.7 -30 5.7 -3.6 18.7 -8.1 23.6 -8.1 4.5 0 4.6 -1.3 0.4 -7.6 -5.2 -7.6 -7.7 -8.9 -16.6 -8.8 -9.5 0 -15.1 2.3 -22.5 9.2 -2.8 2.7 -6.2 5.5 -7.5 6.1 -2.2 1.2 -2.4 0.9 -5.7 -6.3 -1.9 -4.1 -3.6 -8.4 -3.8 -9.4 -0.3 -2.6 10.8 -12.3 18.3 -16.2 12.7 -6.4 26 -7.8 36.7 -3.8 9.9 3.7 15.3 10.2 26 31.3 10.1 20 27.3 56.2 27.3 57.5 0 0.5 -3.6 2.3 -8.1 4 -8.9 3.4 -9.7 3.2 -12.5 -2.2 -0.8 -1.5 -1.9 -2.8 -2.5 -2.8 -0.5 0 -2.1 2.5 -3.4 5.5 -6.2 14 -21.9 21.7 -34.7 17z m15 -23.1 c4.8 -2 9.5 -6.6 11.7 -11.5 1.8 -3.8 1.7 -4 -1 -11.6 -1.5 -4.3 -3.1 -8.2 -3.5 -8.6 -1 -1.1 -13.6 1 -17.4 3 -4.8 2.4 -8.5 6.4 -9.6 10.3 -2.5 9.3 4.5 18.5 15.3 19.9 0.4 0.1 2.4 -0.6 4.5 -1.5z"/>
  <path d="M288.4 1188 c-7.5 -1 -20.2 -5.2 -26 -8.6 -22.5 -13.2 -27.3 -35.7 -13.4 -63.6 13.9 -27.8 34.2 -42.9 55.9 -41.6 10.3 0.6 16.8 3.6 23.1 10.5 8.6 9.4 10.9 21.4 7 36.9 -1.9 7.8 -9.9 25.3 -12.5 27.4 -1.1 0.9 -6.5 -1.1 -23.3 -8.3 -23.4 -10.2 -31.8 -13.2 -32.7 -11.7 -1.3 2.1 -1.7 17.8 -0.6 21.2 1.5 4.6 8.7 11.3 15.5 14.4 3 1.3 9.9 3.1 15.7 4 5.7 0.8 10.4 1.6 10.6 1.7 0.1 0.2 -1.9 4.4 -4.5 9.5 -3.7 7.2 -5.1 9.2 -6.7 9.1 -1.1 -0.1 -4.7 -0.5 -8.1 -0.9z m25.4 -71.8 c1.6 -7.8 1.5 -11.7 -0.4 -15.3 -1.8 -3.6 -8.2 -6.8 -13.5 -6.9 -5.4 0 -13.5 4.6 -17.5 9.9 -1.8 2.5 -3.4 4.9 -3.4 5.2 0 1.3 28.6 12.8 32 12.9 1.1 0 2 -1.7 2.8 -5.8z"/>
  <path d="M2334.5 1132.8 c-9.9 -17.7 -21.5 -38.2 -25.7 -45.7 -10.6 -18.8 -10.5 -18 -2 -21.9 3.8 -1.8 7.3 -3.2 7.9 -3.2 0.5 0 2.7 2.5 4.9 5.5 2.1 3 4.2 5.5 4.5 5.5 0.4 0 0.9 -2 1.2 -4.5 1.3 -8.9 8 -18.1 16.8 -23 4.6 -2.6 6.5 -3 12.9 -3 6.6 0 8.2 0.4 13.7 3.4 12.3 6.6 16.1 11.9 42.1 58.5 l15.1 26.9 -9.2 4.4 c-5.1 2.3 -9.7 4.3 -10.2 4.3 -0.6 0 -9 -14.5 -18.8 -32.2 -9.8 -17.8 -19 -33.8 -20.5 -35.6 -3.6 -4.3 -8.9 -6.1 -15.3 -5.1 -8.7 1.4 -14 7 -16 17 l-1.1 5.4 12.8 22.5 c19.7 35 24.4 43.4 24.4 44.3 0 0.9 -13.2 7.2 -17 8 -2.4 0.5 -3.4 -1.1 -20.5 -31.5z"/>
  <path d="M183.5 1141.9 c-7.5 -1.5 -18.4 -7.1 -23.8 -12.4 -7.1 -6.7 -9.2 -12 -9.1 -22.5 0.1 -14 5.3 -25.9 24.9 -56.5 10.2 -16 14.3 -23.1 15.4 -27.1 0.6 -2.1 0.9 -2.1 10.4 2.4 5.3 2.4 9.7 4.8 9.7 5.2 0 0.5 -6.6 12.2 -14.6 26.1 -21.6 37.6 -22.8 40.1 -22.9 47 0 4.3 0.5 6.4 2.1 8.5 4.8 6.5 12.3 9.3 19.7 7.3 5.2 -1.4 13.8 -9.9 18.6 -18.4 14.3 -25.4 30.6 -52.8 31.8 -53.2 0.7 -0.3 5.1 1.3 9.8 3.5 l8.5 4.1 -1.8 3.8 c-7.6 16.2 -34.3 61 -40.7 68.1 -9.8 10.9 -25.1 16.6 -38 14.1z"/>
  <path d="M2442.1 1111.2 c-5.1 -9 -33.8 -55 -45.8 -73.5 l-8.3 -12.7 9.7 -4.5 c5.3 -2.5 9.9 -4.5 10.2 -4.5 0.3 0 2.1 2.8 4 6.3 1.8 3.4 13.4 22.2 25.8 41.7 12.4 19.5 23.8 37.6 25.4 40.1 1.6 2.5 2.9 5 2.8 5.5 -0.1 1 -16.7 9.5 -18.4 9.4 -0.5 0 -3 -3.5 -5.4 -7.8z"/>
  <path d="M91.4 1090.4 c-3.2 -1.9 -6.7 -4.3 -7.7 -5.3 -2.2 -2.1 -4.8 1.9 36.1 -56.1 28.5 -40.4 24.9 -37.3 35.1 -31 5.8 3.6 5.8 4.1 1.5 11.8 -1.4 2.3 -2.1 4.2 -1.5 4.2 0.5 0 3.9 -0.9 7.7 -2.1 10.1 -3.1 12.9 -2.9 23.6 1.8 6.7 3 6.7 2.7 -1.4 13.6 -3.2 4.3 -5.8 8.2 -5.8 8.7 0 0.4 -3.1 -0.5 -6.9 -2.1 -13 -5.5 -24.1 -4.8 -30.3 1.9 -2.8 3 -26.3 35.9 -35.3 49.5 -3.4 5.1 -6.5 8.7 -7.5 8.7 -0.9 0 -4.3 -1.6 -7.6 -3.6z"/>
  <path d="M2489.1 1084.9 c-11 -2.1 -21.3 -9.3 -34 -23.5 -11.3 -12.6 -18.2 -26.2 -20.3 -39.8 -2.8 -18.5 7 -34 24.8 -39.2 12.3 -3.5 26.5 0 39.3 9.9 7.3 5.6 22.3 23.5 21.9 26.2 -0.2 1.4 -7.2 6.3 -23.5 16.5 -12.8 8 -23.2 14.9 -23.3 15.4 -0.1 2.3 10 10.4 15 12.1 13.2 4.4 30.2 -3.4 42.1 -19.3 l2.5 -3.3 6.8 8.1 6.8 8.1 -2.7 4.1 c-6 9.1 -19.3 19 -31.8 23.6 -6.1 2.3 -15.3 2.8 -23.6 1.1z m-21.8 -55.5 c7.6 -3.9 22.7 -14.4 22.7 -15.9 0 -1.7 -6.1 -7 -11 -9.5 -7.6 -3.9 -18.5 -1.8 -21.5 4.1 -1.9 3.7 -1.9 10.2 0.1 17 2.5 8.3 2.1 8.1 9.7 4.3z"/>
  <path d="M53 1066.6 c-25.2 -8.9 -44.3 -25.8 -50 -44.5 -2.3 -7.2 -2.6 -19 -0.9 -27.3 1.5 -6.9 6.5 -17.9 12 -25.9 6 -8.9 24.7 -27.8 33.5 -33.9 24.9 -17.2 53.6 -21 75.5 -10 11.3 5.7 33.1 26.1 31.3 29.2 -0.4 0.7 -3.8 5 -7.7 9.5 l-6.9 8.3 -4.3 -5.8 c-16.2 -21.6 -37.3 -28.9 -60.7 -20.7 -3.9 1.3 -9.5 3.9 -12.5 5.7 -11.8 7 -29.3 27.6 -33.4 39.5 -1.5 4.1 -2.1 8.6 -2.2 15.3 -0.2 8.8 0 9.9 2.7 14.8 4.7 8.5 17 18.8 24.7 20.7 2.3 0.6 3.5 -0.5 12.5 -11.2 13.9 -16.6 12.9 -15 11.3 -16.9 -0.7 -0.9 -4.5 -3.8 -8.4 -6.4 -3.8 -2.6 -7.8 -5.7 -8.9 -6.8 -1.8 -2.1 -1.8 -2.2 4.3 -9 9 -10.3 8.1 -9.9 14.8 -5.6 3.2 2 11.8 8.1 19.1 13.6 l13.2 9.9 -1.7 2.9 c-0.9 1.6 -7.9 10 -15.5 18.7 -7.7 8.7 -18.3 20.9 -23.6 27 -5.3 6.2 -10.1 11.2 -10.7 11.2 -0.5 0 -3.9 -1.1 -7.5 -2.3z"/>
  <path d="M2563 1046.2 c0 -0.4 -3 -4.3 -6.6 -8.7 l-6.6 -7.9 8 -2.7 c10.1 -3.3 16.2 -6.8 20.1 -11.6 5.1 -6.2 5.3 -12.9 0.4 -17.7 -2.2 -2.2 -3.5 -2.6 -8.3 -2.6 -3.1 0 -9.3 1.1 -14 2.5 -11.7 3.5 -22.6 3.5 -29.7 0 -9.2 -4.6 -17.8 -15.8 -20.7 -26.8 -3.7 -14.2 3.9 -26.4 21.7 -34.7 7.6 -3.5 16.5 -6.6 17.2 -5.8 0.1 0.2 2.8 3.2 5.9 6.8 8.6 9.7 8.6 9.6 1.8 11.5 -12 3.5 -22.3 9.9 -24.3 15.2 -1.2 3.3 0.5 10.4 3.2 12.6 3.1 2.5 9.6 2.1 22.8 -1.4 9.1 -2.4 12.9 -3 17.6 -2.6 12.5 0.9 24.5 10.1 30.7 23.3 8 17.2 0.5 33.1 -20.9 44.1 -7.9 4.2 -18.3 7.8 -18.3 6.5z"/>
  <path d="M1439.1 1036.3 c-2.5 -2.3 -31.3 -40 -100.2 -131 -4.3 -5.6 -8.3 -11.2 -8.9 -12.3 l-1.2 -2.2 29.9 0.7 c112.6 2.3 192.2 6.5 279.8 14.6 26.6 2.4 76.1 7.7 79.3 8.4 2.3 0.6 2.3 0.7 0.8 3 -0.8 1.3 -5.6 9.7 -10.7 18.7 -17.3 30.9 -28.9 46 -43.6 56.4 -7.2 5.2 -20.4 11.5 -28.8 13.7 -12.1 3.3 -23.8 3.7 -107.7 3.7 l-83.8 0 0 14.5 c0 8.8 -0.4 14.5 -1 14.5 -0.5 0 -2.3 -1.2 -3.9 -2.7z"/>
  <path d="M2366.1 990.9 c-4 -6.6 -7.2 -12.2 -7 -12.3 0.2 -0.2 4.7 -2.7 10.1 -5.5 l9.6 -5.2 7.2 12.7 c5.8 10 7 12.8 5.9 13.5 -0.8 0.5 -1.7 0.9 -2 0.9 -0.4 0 -3.8 1.8 -7.5 4 -3.8 2.2 -7.3 4 -7.9 4 -0.5 0 -4.3 -5.4 -8.4 -12.1z"/>
  <path d="M1724.5 880.9 c-90.4 -15.3 -221.2 -26.7 -341.8 -29.8 -18 -0.5 -33 -1.1 -33.3 -1.4 -0.6 -0.6 1.5 -4 7.9 -13 l4.9 -6.7 124.7 0 124.8 0 1.7 -11.6 c1.1 -7.2 2 -20.9 2.3 -36 l0.6 -24.4 51.2 0 51.2 0 5.9 4.6 c11.4 9 31.6 21.7 47.3 29.8 l16 8.2 -23.1 38.9 c-12.6 21.5 -23.4 40 -23.9 41.3 -1 2.6 -1.5 2.6 -16.4 0.1z"/>
  <path d="M871.6 877.3 c-1.3 -2.7 -6.7 -12.2 -12 -21.3 -5.3 -9 -9.6 -16.7 -9.6 -17.1 0 -0.4 3.9 -1 8.8 -1.4 4.8 -0.4 17 -1.5 27.2 -2.5 10.2 -1 18.6 -1.8 18.7 -1.7 0.1 0.1 -1.9 4.4 -4.3 9.6 -4.2 8.6 -11.4 30.9 -11.4 35.1 0 1.4 -1.3 2 -6.3 2.9 -8.8 1.5 -8.4 1.6 -11.1 -3.6z"/>
  <path d="M789.2 667.9 c-13.3 -0.7 -33.3 -2.7 -36.3 -3.5 -0.8 -0.2 -2.3 -2.8 -3.2 -5.7 -1.6 -5 -4.7 -22.3 -4.7 -25.9 0 -1.7 1.7 -1.8 22.8 -1.8 12.5 0 33.8 0.3 47.5 0.7 l24.7 0.6 0 17.7 0 17.7 -7.7 0.7 c-9.1 0.7 -24.9 0.6 -43.1 -0.5z"/>
  <path d="M1047 532.5 c0.1 -35.4 0.4 -52.4 1 -51.3 1.8 3.1 22.1 50 28.5 65.8 7 17.4 12 31.9 11.2 32.6 -0.3 0.3 -6.8 -2.7 -14.6 -6.5 -13.4 -6.8 -14.1 -7 -15.1 -5.1 -0.6 1.1 -3.3 5.5 -6 9.8 l-5 7.7 0 -53z"/>
  <path d="M836.6 449.9 c3.1 -6 5.5 -11.1 5.3 -11.3 -0.2 -0.2 -5.1 -3.1 -10.9 -6.4 -5.8 -3.4 -11.6 -7 -12.9 -8 l-2.3 -1.9 10.3 -2.1 c23.8 -4.9 48.7 -8.4 114.6 -15.8 l33.2 -3.8 9.8 2.2 c5.4 1.2 14.1 2.6 19.3 3.2 12.9 1.5 14 1.8 14.7 3.8 0.3 0.9 5.3 12.7 11 26.1 5.6 13.4 10.3 24.5 10.3 24.7 0 0.2 -46.8 0.4 -104 0.4 l-104.1 0 5.7 -11.1z"/>
  <path d="M1598 281.3 l0 -61.3 -119.9 0 -120 0 -9.7 -17.2 c-5.4 -9.5 -12.7 -22 -16.2 -27.8 -12.1 -19.6 -13.9 -25.1 -10.7 -34 0.8 -2.4 7.5 -14.5 14.9 -26.9 7.3 -12.4 16.5 -28 20.4 -34.6 19 -32.5 37.8 -50.1 66.4 -61.9 36.6 -15.2 77.2 -10.9 106.5 11.3 16.6 12.5 20.5 18.2 54.2 79.5 25.3 45.8 40.4 72.3 46.4 81.4 7.3 10.9 6.5 10.8 19.8 3.1 4.7 -2.7 10.2 -5.6 12.2 -6.4 l3.7 -1.5 -2.4 6.2 c-3.8 10.3 -35.7 83.9 -62.7 144.8 l-2.8 6.5 -0.1 -61.2z"/>
 </g>
 <g fill="#ffcc29">
  <path d="M619.5 1013.1 c-83.1 -33.5 -151.7 -69.7 -222.9 -117.4 -57.7 -38.7 -116.8 -93.6 -154.1 -143.2 -44.7 -59.4 -69.5 -115.7 -79.7 -180.5 -2 -12.8 -2.2 -18.2 -2.3 -46.5 0 -34.8 0.7 -42.3 6.6 -69.9 12.1 -57.6 40.2 -115.1 81.1 -166.3 34.2 -42.7 77.3 -83.8 126.5 -120.5 20.5 -15.3 72.6 -48.5 100.8 -64.3 17.6 -9.8 75 -38.4 99.5 -49.4 27.5 -12.5 58 -24.9 58 -23.7 0 0.3 -10.9 6 -24.2 12.9 -25.6 13.1 -47.9 25.4 -66.4 36.7 -11 6.6 -76.6 51.9 -85.4 58.9 -23.4 18.6 -66.2 56.6 -74.9 66.5 -2.5 2.8 -9 9.8 -14.6 15.6 -23.7 24.7 -41.7 48.9 -67 90 -33.6 54.4 -53.7 113.2 -60 175 -2.2 21.1 -1.7 68.8 0.9 88 6.3 46.4 18.3 84.8 40.2 128.1 22.2 44 51.7 86.5 86.1 124.2 18.7 20.5 23.7 25.4 46.3 45.8 25 22.4 28 24.8 67.6 53.7 33.2 24.2 47.5 33.7 74.4 49.4 14.8 8.7 66.9 36.4 72.8 38.7 3.1 1.3 5.2 3.1 3.5 3.1 -0.4 -0.1 -6.2 -2.3 -12.8 -4.9z"/>
  <path d="M1975 1016.6 c0 -0.2 9.3 -5.2 20.8 -11.1 48.2 -24.9 75.2 -41.3 121.2 -73.3 35.6 -24.9 48.1 -34.8 76 -60.5 42.4 -39.2 71.5 -71.9 94.7 -106.7 51.5 -77.2 76.5 -149.9 79 -229 2.9 -94.9 -31.1 -191.6 -97.4 -276.7 -10.2 -13.2 -31.5 -38.3 -32.4 -38.3 -0.3 0 -4.1 -4.1 -8.4 -9.1 -9.3 -10.9 -80.6 -73 -100.2 -87.3 -39.1 -28.5 -79.1 -52.9 -129.5 -79.1 -13.6 -7.1 -24.6 -13 -24.4 -13.2 0.6 -0.6 15.6 5.4 38.1 15.2 77.3 33.8 138.9 66.7 191.5 102.3 82.7 55.9 152.5 127.4 193 197.7 46.8 81.1 60.3 171.2 38.9 258.5 -18.9 77.1 -66.4 151.3 -141.4 221.3 -50.7 47.4 -103.9 84.7 -176.2 123.6 -33.2 17.9 -100 49.3 -132.1 62 -10.4 4.2 -11.2 4.4 -11.2 3.7z"/>
  <path d="M1941.5 943.4 c-21.2 -5.2 -79.6 -16.7 -110 -21.8 -121.8 -20.2 -247.9 -31.9 -408.5 -37.8 -43.5 -1.6 -195.1 -1.6 -239.5 0 -205.8 7.4 -378.9 27.1 -515.8 58.8 -8.2 1.9 -15.1 3.4 -15.5 3.3 -1.6 -0.1 13.4 -5.3 31.6 -10.9 236.7 -73.6 626.1 -96.5 959.2 -56.5 96.5 11.6 192.1 30.2 263.5 51.1 15.9 4.7 51.5 16.4 51.5 17 0 0.7 -1.8 0.3 -16.5 -3.2z"/>
  <path d="M768 825.9 c-109.4 -4.4 -198.1 -36.7 -257.1 -93.7 -41.8 -40.3 -66 -87.1 -75 -145.4 -2.7 -17 -3.8 -63.4 -2 -82.6 3.4 -35.7 11.3 -63.7 27.5 -96.7 25 -51 66.2 -94.3 120.3 -126.6 56.4 -33.6 118.1 -51.5 197.1 -57 21.7 -1.5 90.7 -0.6 110.2 1.4 43.3 4.6 71.9 9.9 111.8 20.9 l11.2 3 0 72.5 0 72.5 -7.7 -0.7 c-9.8 -0.9 -18 -2.6 -36.3 -7.5 -25.3 -6.8 -52.9 -11.7 -88 -15.7 -22 -2.4 -73.5 -2.4 -90.8 0 -53.8 7.6 -93.6 23.5 -123.1 49.1 -34.1 29.5 -52.5 76.5 -48.3 122.9 5.3 57.5 26.9 93 70.2 115.1 27.4 14.1 59.4 21 108.4 23.7 19.8 1 47.2 0.2 54.4 -1.7 l2.2 -0.6 0 -29.8 0 -29.7 -36.7 -0.6 c-20.3 -0.4 -52 -0.7 -70.5 -0.7 l-33.8 0 0 -72 0 -72 161 0 161 0 0 158.9 0 158.8 -6.7 3.1 c-25.7 11.6 -78.7 21.6 -148.8 28.2 -39 3.6 -72.5 4.5 -110.5 2.9z"/>
  <path d="M1957 825.9 c-103.7 -4.4 -191.1 -37.6 -248.6 -94.4 -51.6 -51 -76.4 -114.9 -76.4 -196.9 0 -54 9.9 -97.4 32.3 -141.1 28 -54.5 72.5 -98.2 129.5 -127.1 63.5 -32.2 143.4 -47.4 228.5 -43.5 36.5 1.7 55 3.7 90.7 10.2 29.2 5.3 45.7 10.5 51.7 16.1 l2.3 2.1 0 70.5 0 70.5 -6.5 -0.7 c-8.6 -0.9 -26.2 -4.5 -46 -9.5 -40.9 -10.2 -82.3 -15 -119.5 -13.8 -87.5 2.9 -147.5 39.2 -168.5 102.1 -12.8 38 -12.5 82 0.7 119.5 10.6 30.2 31.2 53.4 60.6 68.4 42 21.5 98.7 27.7 174.2 19.1 20.4 -2.3 34.3 -4.9 59 -11 29.5 -7.2 44.4 -10.4 48.6 -10.4 l3.4 0 -0.1 67.3 c-0.1 36.9 -0.4 69.9 -0.8 73.1 -0.6 5.9 -0.7 6 -5.1 8.2 -8.5 4.2 -36.6 9.9 -74.5 15.3 -41.8 5.9 -88.7 8 -135.5 6z"/>
  <path d="M1110.6 800.3 c-0.4 -9.3 -1.2 -26.7 -1.7 -38.8 -1.6 -36.7 -2.2 -200.8 -1 -273 0.6 -36.8 1.6 -109.4 2.3 -161.3 l1.2 -94.2 236.9 0.2 236.9 0.3 -0.1 71.5 c-0.1 39.3 -0.4 71.7 -0.7 72 -0.3 0.3 -66.2 0.5 -146.5 0.4 l-145.9 0 0 34.8 0 34.8 126 0 126 0 0 72 0 72 -126 0 -126 0 0 41 0 41 155.6 0 155.6 0 -0.5 69.8 c-0.2 38.3 -0.8 70.7 -1.2 72 l-0.7 2.2 -244.8 0 -244.7 0 -0.7 -16.7z"/>
 </g>
 <g fill="#ffffff">
  <path d="M756 825.9 c-104.9 -7.3 -188.9 -39.5 -245.1 -93.7 -51.1 -49.2 -76.5 -109.4 -78.6 -185.7 -0.6 -24.6 0.4 -41 4.2 -63 4.7 -27.5 11.9 -49.4 24.9 -76 25 -51 66.2 -94.3 120.3 -126.6 32.9 -19.6 65.3 -32.9 104 -42.8 41.2 -10.4 76 -14.8 125.3 -15.8 50.2 -0.9 96.1 2.9 140 11.8 14.4 2.9 54 12.8 59.3 14.8 l2.7 1.1 0 72.5 0 72.5 -4.7 -0.6 c-10.6 -1.2 -22.6 -3.7 -38.3 -7.9 -71.3 -18.9 -150.3 -23.3 -208 -11.4 -61.4 12.5 -107 43.2 -128.8 86.4 -9.8 19.6 -14.1 37.4 -14.9 62 -2.4 74.3 29.2 122.7 94 144 21.9 7.2 41.1 10.4 74.7 12.6 17.5 1.1 55.9 0.7 62.1 -0.7 l2.6 -0.6 0.7 -28.9 c0.3 -16 0.4 -29.4 0.1 -30 -0.4 -0.5 -28 -0.9 -71.1 -0.9 l-70.4 0 0 -73 0 -73 162 0 162 0 0 159 0 159 -5.7 2.9 c-26.5 13.3 -103.3 26.8 -182.8 32.1 -17.4 1.1 -73.6 1.1 -90.5 -0.1z m74 -2.9 c79 -3.3 169.7 -18.1 197.2 -32.1 l3.8 -1.9 0 -156 0 -156 -158 0 -158 0 0 69 0 69 33.8 0 c18.5 0 50.2 0.3 70.5 0.7 l36.7 0.6 0 32.7 0 32.8 -2.2 0.6 c-1.3 0.3 -9.8 1.1 -19.1 1.7 -27 1.9 -71.1 -0.9 -97.7 -6.2 -45.2 -9 -78.7 -28.9 -98.9 -58.7 -19.5 -28.8 -28.6 -78.1 -21.6 -117.7 3.5 -20 11.5 -40.7 21.6 -55.6 23.4 -34.9 62.4 -59.6 113.4 -72 30 -7.2 53.3 -9.4 91.5 -8.6 44 1 85 6.6 125 17.1 18.8 5 29.4 7.3 36.3 7.9 l4.7 0.5 0 -69.3 0 -69.3 -11.2 -3 c-58.6 -16.1 -100.6 -22 -163 -22.9 -58.8 -0.9 -99.1 3.2 -145.7 14.7 -101.7 25.1 -184.1 86.5 -224 167 -19.8 39.9 -27.8 73.6 -28.8 120.7 -0.8 35.6 1.8 59.7 9.2 86.8 21.6 78.7 76 137.7 160 173.5 47.3 20.2 102.2 31.4 166 34 26.9 1 32.9 1 58.5 0z"/>
  <path d="M1947 826 c-56.2 -4.3 -108 -16.5 -151 -35.6 -90.9 -40.4 -147.3 -112.6 -161 -206.1 -11.5 -79.3 4.5 -156.8 45.2 -217.8 28.7 -43.2 66 -76 113.6 -100.1 42.6 -21.6 92.1 -35.6 148.9 -42 18.8 -2.1 71.3 -3 92.9 -1.5 47.3 3.3 102.9 13.2 120.7 21.4 12.4 5.8 11.2 -2.8 11.5 78.3 l0.3 70.4 -4.3 -0.6 c-11 -1.6 -32.1 -6 -49.9 -10.4 -37.5 -9.3 -68.6 -13 -108.5 -13 -26.6 0 -44.1 1.6 -62.4 5.6 -76.5 17 -120.7 66.6 -124.9 140.4 -3.9 69.1 19.8 117.8 69.7 143.3 43.4 22.2 106 27.9 187.2 17.2 16.1 -2.2 24 -3.8 52 -10.5 13.5 -3.3 29.6 -7 35.9 -8.4 l11.4 -2.4 -0.6 24.6 c-0.4 13.6 -0.7 46.8 -0.7 73.8 l0 49 -4.5 2.3 c-2.5 1.2 -7.5 3.1 -11.3 4.2 -16.7 4.8 -69.4 13.4 -101.7 16.5 -19.7 1.9 -90 2.8 -108.5 1.4z m72.5 -3 c35.8 -1.6 61.2 -4.3 99 -10.6 26.1 -4.4 37.7 -7.1 45.6 -10.6 l4.6 -2 0.7 -8.2 c0.6 -8.9 0.9 -132.6 0.2 -132.6 -1.4 0 -26.4 5.7 -45.6 10.4 -31 7.6 -49 10.5 -84.5 13.6 -15.5 1.3 -58.8 1.3 -73 0 -82.1 -7.6 -131.3 -43.2 -146.9 -106.2 -4.4 -17.8 -5.1 -24.1 -5.1 -48.3 0 -18 0.4 -25.2 1.9 -33 6.3 -34.1 18.4 -58.4 39.5 -79.5 25.9 -25.9 59.3 -41.3 103.8 -48 27.4 -4.2 69.3 -3.7 105.5 1.1 19.5 2.6 27.6 4.1 51.1 10 16.8 4.1 31.4 7.2 45 9.4 l2.7 0.5 0 -67.9 c0 -76.9 1 -68.9 -9.1 -73.5 -13.5 -6.2 -58.8 -15.2 -95.9 -19 -81.6 -8.5 -159.9 0.1 -226.5 24.9 -46.8 17.4 -81.5 39.2 -113.6 71.4 -15.7 15.8 -23.8 25.6 -35.7 43.6 -30.3 45.5 -45.9 96 -47.9 155.5 -1.7 51.6 7.7 98 28.1 139.5 13.4 27 24.9 43 47 65 67.5 67.2 175.4 100.2 309.1 94.5z"/>
  <path d="M1110.6 808.8 c-1.5 -21.7 -2.6 -56.3 -3.8 -116.8 -1.2 -64 -0.4 -169.3 2.2 -321 0.5 -27.8 0.9 -70.4 1 -94.7 l0 -44.3 238 0 238 0 0 73 0 73 -40.7 0.2 c-22.5 0.1 -88.6 0.1 -147 -0.1 l-106.3 -0.4 0 34.1 0 34.2 126.5 0 126.5 0 0 73 0 73 -126.7 0 -126.6 0 0.6 24.2 c0.4 13.3 0.7 31.3 0.7 40 l0 15.8 154.9 0 154.8 0 0.7 48.8 c0.6 45 -0.3 89.3 -2 95 l-0.6 2.2 -244.8 0 -244.8 0 -0.6 -9.2z m487.9 3 c0.4 -1.3 1 -32.3 1.2 -69 l0.5 -66.8 -155.6 0 -155.6 0 0 -44 0 -44 126 0 126 0 0 -69 0 -69 -126 0 -126 0 0 -37.8 0 -37.9 145.9 0.1 c80.3 0.1 146.2 -0.2 146.5 -0.5 0.3 -0.3 0.6 -31.3 0.6 -69 l0.1 -68.4 -233.9 -0.3 -233.8 -0.2 -1.2 94.2 c-0.7 51.9 -1.7 124.5 -2.3 161.3 -1.2 71.8 -0.6 230 1 267 0.5 12.1 1.3 29.5 1.7 38.8 l0.7 16.7 241.7 0 241.8 0 0.7 -2.2z"/>
 </g>
</svg>